<?xml version="1.0" encoding="UTF-8"?>
<svg xmlns="http://www.w3.org/2000/svg" viewBox="0 0 1777 1707" width="512" height="491" role="img" aria-label="Nazcake logo">
  <defs>
    <linearGradient id="logo-gold" gradientUnits="userSpaceOnUse" x1="0" y1="0" x2="1777" y2="1707">
      <stop offset="0%" stop-color="#F3E5C0"/>
      <stop offset="35%" stop-color="#D4AF37"/>
      <stop offset="55%" stop-color="#A67C00"/>
      <stop offset="75%" stop-color="#D4AF37"/>
      <stop offset="100%" stop-color="#F3E5C0"/>
    </linearGradient>
  </defs>
  <g fill="url(#logo-gold)">
    <path d="M0 0 C3.03 1.83 6.08 3.65 9.12 5.46 C30.29 18.09 50.52 32.08 70.19 46.93 C70.92 47.48 71.65 48.02 72.39 48.59 C86.83 59.46 100.85 70.82 114.58 82.56 C116.23 83.97 117.89 85.36 119.55 86.76 C131.6 96.93 143.09 107.69 154.17 118.93 C156.85 121.64 159.6 124.21 162.51 126.68 C165.77 129.47 168.51 132.49 171.28 135.76 C173.49 138.26 175.82 140.59 178.19 142.93 C181.7 146.4 185.02 149.94 188.23 153.68 C190.27 156.02 192.38 158.29 194.5 160.56 C199.5 165.91 204.27 171.36 208.86 177.07 C211.53 180.35 214.3 183.55 217.07 186.75 C222.48 193.02 227.63 199.46 232.7 206.02 C234.3 208.07 235.92 210.11 237.54 212.15 C245.21 221.84 252.39 231.75 259.25 242.03 C260.67 244.14 262.08 246.25 263.5 248.36 C301.52 304.77 333.83 364.1 357.47 427.97 C358.2 429.95 358.94 431.93 359.68 433.91 C389.38 513.62 404.56 598.49 367.19 970.93 C366.97 971.63 366.75 972.33 366.52 973.05 C356.51 1004.54 343.33 1035.01 329.54 1065.01 C328.36 1067.57 327.19 1070.14 326.03 1072.72 C321.16 1083.42 315.55 1093.7 309.84 1103.98 C308.17 1106.97 306.52 1109.98 304.87 1112.98 C289.03 1141.72 271.39 1169.32 252.19 1195.93 C251.64 1196.7 251.09 1197.46 250.52 1198.25 C242.86 1208.86 234.91 1219.16 226.57 1229.25 C224.71 1231.52 222.89 1233.82 221.07 1236.12 C216.72 1241.57 212.21 1246.88 207.68 1252.19 C206.14 1254 204.6 1255.81 203.07 1257.63 C193.92 1268.42 193.92 1268.42 188.88 1273.25 C187.16 1274.97 185.58 1276.77 183.99 1278.62 C180.23 1282.95 176.26 1287.03 172.21 1291.09 C171.46 1291.84 170.72 1292.58 169.95 1293.35 C168.39 1294.92 166.83 1296.49 165.26 1298.05 C162.89 1300.42 160.53 1302.8 158.17 1305.18 C136.43 1327 136.43 1327 128.94 1327.25 C124.29 1327.18 121.72 1326.12 118.19 1322.93 C115.8 1319.54 114.94 1317.02 115.26 1312.93 C116.31 1307.15 119.35 1303.55 123.75 1299.84 C128.62 1295.62 133.16 1291.12 137.7 1286.56 C138.14 1286.12 138.14 1286.12 140.37 1283.89 C142.7 1281.57 145.02 1279.24 147.34 1276.91 C148.76 1275.5 150.17 1274.08 151.59 1272.67 C154.34 1269.93 157.08 1267.18 159.82 1264.44 C160.66 1263.6 161.49 1262.77 162.35 1261.91 C167.17 1257.08 171.77 1252.13 176.19 1246.93 C177.16 1245.82 178.12 1244.7 179.08 1243.58 C180.01 1242.49 180.95 1241.4 181.88 1240.31 C185 1236.67 188.11 1233.03 191.25 1229.41 C198.16 1221.44 204.76 1213.29 211.19 1204.93 C211.81 1204.14 212.42 1203.35 213.06 1202.53 C221.2 1192 229.18 1181.42 236.58 1170.35 C238.51 1167.45 240.46 1164.57 242.41 1161.68 C277.91 1108.96 308.62 1052.85 330.19 992.93 C330.69 991.59 331.18 990.24 331.67 988.89 C357 919.52 373.59 847.66 379.19 773.93 C379.25 773.25 379.3 772.56 379.35 771.86 C385.49 689.94 378.82 606.51 312.19 390.93 C311.63 389.68 311.06 388.42 310.49 387.17 C298.97 361.77 286.41 336.94 272.19 312.93 C271.65 312.01 271.1 311.09 270.54 310.14 C251.13 277.53 229.59 245.73 205.24 216.6 C202.93 213.84 200.69 211.04 198.51 208.18 C191.84 199.5 184.59 191.28 177.23 183.18 C175.42 181.18 173.65 179.16 171.88 177.12 C161.82 165.62 151.16 154.74 140.35 143.96 C137.93 141.54 135.52 139.13 133.11 136.71 C131.55 135.15 129.99 133.59 128.43 132.03 C127.72 131.32 127.01 130.61 126.28 129.88 C122.28 125.9 118.18 122.09 113.91 118.41 C111.69 116.5 109.54 114.53 107.38 112.56 C103.09 108.68 98.66 105.01 94.17 101.38 C90.86 98.66 87.62 95.86 84.38 93.06 C77.49 87.12 70.41 81.47 63.19 75.93 C62.58 75.46 61.96 74.98 61.33 74.5 C50.56 66.23 39.46 58.51 28.19 50.93 C27.44 50.42 26.68 49.91 25.9 49.39 C-47.83 -0.41 -128.98 -38.49 -305.81 -79.07 C-306.5 -79.17 -307.2 -79.27 -307.91 -79.37 C-366.77 -87.7 -426.66 -88.42 -485.81 -83.07 C-486.21 -83.03 -486.21 -83.03 -488.25 -82.85 C-511.62 -80.72 -534.74 -77.33 -557.81 -73.07 C-558.52 -72.94 -559.23 -72.81 -559.96 -72.67 C-618.32 -61.85 -674.61 -43.06 -728.81 -19.07 C-729.99 -18.55 -731.16 -18.02 -732.38 -17.49 C-745.02 -11.87 -757.37 -5.86 -769.53 0.72 C-771.8 1.93 -774.08 3.11 -776.36 4.29 C-826.43 30.1 -873.1 62.36 -915.96 98.84 C-919.49 101.84 -923.07 104.78 -926.68 107.68 C-930.39 110.7 -933.81 113.82 -937.13 117.25 C-938.95 119.08 -940.85 120.75 -942.81 122.43 C-945.41 124.68 -947.89 126.98 -950.31 129.43 C-952.6 131.76 -954.94 133.94 -957.43 136.06 C-965.59 143.1 -973.23 150.9 -980.2 159.11 C-981.99 161.14 -983.88 163.03 -985.81 164.93 C-989.69 168.77 -993.26 172.79 -996.81 176.93 C-997.69 177.95 -998.57 178.97 -999.45 179.99 C-1004.94 186.33 -1010.33 192.74 -1015.62 199.25 C-1015.89 199.58 -1015.89 199.58 -1017.29 201.29 C-1020.19 204.88 -1022.97 208.51 -1025.68 212.25 C-1028.71 216.14 -1030.99 217.73 -1035.81 218.93 C-1041.53 219.03 -1044.37 217.11 -1048.42 213.41 C-1051.44 210.19 -1051.27 206.85 -1051.19 202.63 C-1049.92 193.72 -1040.78 186.15 -1035.03 179.63 C-1032.39 176.63 -1029.86 173.56 -1027.37 170.43 C-1022.67 164.62 -1017.56 159.23 -1012.43 153.8 C-1009.78 151 -1007.21 148.15 -1004.65 145.27 C-1000.14 140.25 -995.46 135.44 -990.68 130.67 C-990.26 130.25 -990.26 130.25 -988.15 128.14 C-986.4 126.39 -984.65 124.65 -982.9 122.9 C-980.24 120.25 -977.59 117.58 -974.93 114.92 C-973.22 113.21 -971.51 111.5 -969.8 109.8 C-969.02 109.01 -968.24 108.22 -967.43 107.42 C-962.71 102.72 -957.85 98.27 -952.81 93.93 C-951.2 92.48 -949.59 91.02 -947.99 89.56 C-943.7 85.68 -939.28 82.01 -934.78 78.38 C-932.05 76.14 -929.38 73.85 -926.71 71.54 C-914.41 60.88 -901.35 51.3 -888.23 41.7 C-885.91 40.01 -883.6 38.31 -881.29 36.6 C-816.18 -11.16 -742.07 -47.96 -665.81 -74.07 C-664.66 -74.46 -663.52 -74.85 -662.35 -75.25 C-607.43 -93.86 -549.7 -105.31 -492.02 -110.85 C-490.53 -111 -489.03 -111.14 -487.54 -111.29 C-402.66 -119.68 -316.25 -113.04 0 0 Z " fill="url(#logo-gold)" transform="translate(1367.81,119.07)"/>
    <path d="M0 0 C26.84 19.61 37.29 74.4 43 105 C43.19 106 43.38 107 43.58 108.02 C51.19 148.42 52.05 190.23 48.69 231.12 C48.66 231.49 48.66 231.49 48.51 233.34 C47.39 246.85 46.14 259.86 36.19 269.81 C30.31 273.85 24.2 276.23 17 275 C10.04 272.8 5.64 268.44 1.97 262.26 C-2.62 252.31 0.16 239.25 1.28 228.76 C8.18 162.79 0.91 91.14 -32.98 33.02 C-36.41 26.25 -35.98 17.24 -34.32 10.04 C-32.05 3.77 -29.06 -0.08 -22.89 -3 C-14.5 -6.25 -7.44 -4.91 0 0 Z " fill="url(#logo-gold)" transform="translate(245,163)"/>
    <path d="M0 0 C6.27 5.58 9.05 11.9 10.46 20.11 C10.59 20.85 10.72 21.58 10.85 22.34 C12.28 31.39 12.27 40.42 12.19 49.56 C12.18 50.49 12.18 51.41 12.17 52.36 C11.8 121.55 -0.52 191.54 -21.19 257.5 C-21.48 258.43 -21.77 259.36 -22.07 260.32 C-25.66 271.66 -29.71 282.79 -40.19 289.5 C-46.13 292.48 -51.74 293.29 -58.19 291.5 C-63.92 288.47 -67.52 284.62 -69.94 278.62 C-74.31 263.66 -69.21 248.94 -65.19 234.5 C-64.87 233.36 -64.56 232.22 -64.23 231.05 C-63.57 228.68 -62.92 226.31 -62.26 223.95 C-61.93 222.75 -61.59 221.55 -61.25 220.31 C-60.91 219.09 -60.57 217.87 -60.22 216.62 C-45.96 165 -36.67 112.14 -35.99 58.5 C-35.98 57.34 -35.96 56.18 -35.94 54.99 C-35.86 49.12 -35.81 43.26 -35.79 37.39 C-35.77 35.21 -35.75 33.02 -35.73 30.83 C-35.73 29.84 -35.74 28.84 -35.74 27.82 C-35.6 17.48 -32.31 9.82 -25.21 2.35 C-17.4 -4.79 -9.05 -4.26 0 0 Z " fill="url(#logo-gold)" transform="translate(198.19,315.5)"/>
    <path d="M0 0 C74.1 -1.77 147.66 14.79 214.64 46.07 C215.72 46.57 216.81 47.08 217.92 47.6 C252.77 64.03 286.64 85.28 315.75 110.57 C318.42 112.87 321.13 115.07 323.89 117.25 C340.99 131.21 358.13 147.24 371.72 164.65 C373.68 167.11 375.75 169.39 377.89 171.69 C383.75 178.13 388.91 185.1 394.13 192.06 C395.45 193.81 396.78 195.56 398.12 197.3 C403.99 204.99 409.38 212.95 414.64 221.07 C415.12 221.8 415.6 222.54 416.09 223.3 C426.25 238.99 435.43 255.09 443.59 271.9 C444.32 273.4 445.06 274.9 445.8 276.4 C478.81 343.2 494.85 417.38 494.89 491.75 C494.89 492.3 494.89 492.3 494.89 495.08 C494.82 565.31 480.47 634.38 450.64 698.07 C450.14 699.15 449.64 700.23 449.12 701.34 C439.07 722.92 427.93 743.31 414.64 763.07 C414.4 763.42 414.4 763.42 413.2 765.22 C403.69 779.47 393.38 793.09 382.2 806.07 C379.74 808.95 377.38 811.87 375.02 814.82 C371.5 819.14 367.74 823.08 363.75 826.97 C361.84 828.87 360.07 830.82 358.33 832.88 C351.7 840.58 344.36 847.78 336.62 854.37 C334.31 856.35 332.07 858.39 329.83 860.44 C324.58 865.17 319.17 869.67 313.64 874.07 C312.99 874.59 312.33 875.11 311.65 875.65 C301.94 883.37 292.1 890.79 281.76 897.66 C280.3 898.63 278.85 899.6 277.4 900.58 C200.68 952.27 111.62 978.27 19.64 982.07 C18.77 982.1 17.9 982.14 17 982.18 C11.87 982.36 6.77 982.27 1.64 982.07 C0.51 982.02 -0.62 981.98 -1.79 981.94 C-52.59 979.93 -102.51 971.09 -150.55 954.32 C-151.57 953.96 -152.6 953.61 -153.66 953.25 C-160.1 950.91 -164.22 948.77 -167.73 942.69 C-168.71 938.6 -168.53 935.05 -166.35 931.36 C-163.77 928.02 -161.5 925.91 -157.36 925.07 C-149.06 925.33 -141.65 928.15 -133.9 930.87 C-98.07 943.38 -61.14 950.64 -23.36 954.07 C-22.97 954.1 -22.97 954.1 -21.01 954.28 C25.27 958.23 72.61 952.97 117.64 942.07 C118.72 941.81 119.79 941.55 120.9 941.28 C148.45 934.48 174.81 924.77 200.64 913.07 C201.67 912.6 202.7 912.13 203.76 911.66 C232.93 898.34 260.2 881.56 285.64 862.07 C286.29 861.57 286.94 861.07 287.61 860.56 C305.58 846.77 322.1 831.67 338.14 815.69 C338.98 814.86 339.81 814.03 340.68 813.17 C345.54 808.3 350.18 803.3 354.64 798.07 C355.52 797.06 356.4 796.05 357.27 795.04 C380.91 767.44 400.74 737.2 417.64 705.07 C418.1 704.2 418.56 703.33 419.04 702.44 C461.78 621.76 476.52 525.25 449.97 361.86 C430.85 299.79 401.74 241.69 359.29 192.19 C356.86 189.35 354.53 186.43 352.2 183.5 C348.39 178.8 344.25 174.56 339.94 170.33 C337.26 167.71 334.72 165.07 332.33 162.19 C326.7 155.59 320.03 149.91 313.64 144.07 C312.7 143.2 311.76 142.34 310.8 141.44 C305.27 136.4 299.57 131.64 293.64 127.07 C293.32 126.81 293.32 126.81 291.68 125.55 C272.41 110.62 252.28 96.56 230.7 85.17 C228.63 84.06 226.59 82.89 224.56 81.7 C174.99 52.85 116.44 36.16 59.64 30.07 C58.86 29.98 58.07 29.9 57.26 29.81 C41.36 28.13 25.57 27.7 9.58 27.75 C8.37 27.76 7.16 27.76 5.92 27.76 C-12.37 27.81 -30.25 28.35 -48.36 31.07 C-49.76 31.27 -51.16 31.47 -52.56 31.67 C-130.47 42.94 -204.65 73.22 -270.36 124.07 C-271.31 124.82 -272.26 125.57 -273.24 126.34 C-275.98 128.55 -278.67 130.79 -281.36 133.07 C-281.91 133.53 -282.46 134 -283.02 134.47 C-297.86 147.06 -312.75 160.1 -325.45 174.88 C-327.67 177.42 -329.95 179.9 -332.23 182.38 C-361.14 214.15 -384.89 251.36 -403.36 290.07 C-403.74 290.87 -404.12 291.66 -404.51 292.49 C-436.14 359.23 -452.2 433.68 -448.86 507.57 C-448.73 510.48 -448.61 513.39 -448.48 516.31 C-448.4 518.09 -448.31 519.86 -448.21 521.64 C-447.43 535.97 -447.43 535.97 -451.17 540.57 C-454.76 543.9 -458.44 544.43 -463.3 544.34 C-466.83 543.87 -468.75 542.43 -471.36 540.07 C-473.91 535.07 -474.79 531.1 -475.09 525.44 C-475.13 524.73 -475.17 524.01 -475.21 523.28 C-475.29 521.78 -475.37 520.28 -475.44 518.78 C-475.55 516.53 -475.67 514.29 -475.79 512.04 C-476.6 497.25 -476.38 482.59 -475.55 467.82 C-475.5 467.03 -475.46 466.24 -475.41 465.43 C-471.78 402.47 -456.87 341.37 -430.36 284.07 C-430.12 283.55 -430.12 283.55 -428.93 280.94 C-421.66 265.07 -413.45 249.96 -404.36 235.07 C-403.84 234.21 -403.32 233.35 -402.78 232.47 C-390.23 211.87 -375.78 192.59 -360.36 174.07 C-359.54 173.07 -358.72 172.08 -357.88 171.06 C-347.7 158.78 -336.67 147.3 -325.42 136 C-324.74 135.31 -324.05 134.62 -323.35 133.91 C-318.85 129.43 -314.18 125.2 -309.36 121.07 C-308.28 120.12 -307.19 119.17 -306.11 118.22 C-297.17 110.41 -287.88 103.15 -278.36 96.07 C-278 95.8 -278 95.8 -276.2 94.45 C-201.55 38.78 -113.75 8.28 0 0 Z " fill="url(#logo-gold)" transform="translate(943.36,336.93)"/>
    <path d="M0 0 C3.29 2.51 6.47 5.15 9.66 7.8 C29.44 24.29 29.44 24.29 42.38 24.02 C55.28 22.84 65.48 14.85 75.26 7.07 C81.36 2.21 87.55 -2.28 94.2 -6.37 C94.56 -6.59 94.56 -6.59 96.36 -7.72 C111.31 -16.69 130.75 -17.74 147.51 -13.68 C172.18 -5.86 187.04 10.51 200.5 31.9 C207.27 42.65 214.96 53.03 227.64 56.82 C240.6 58.38 254.76 52.74 266.95 48.75 C290.51 41.08 311.06 38.03 333.86 49.63 C339.29 52.51 344.09 55.68 348.64 59.82 C349.45 60.53 350.27 61.25 351.12 61.98 C366.07 75.85 372.26 95.93 378.21 114.87 C385.16 136.5 385.16 136.5 392.64 141.82 C401.76 145.96 410.45 146.94 420.35 146.99 C422.25 147.01 424.16 147.04 426.06 147.06 C429.02 147.1 431.98 147.13 434.94 147.14 C459.58 147.28 480.67 151.6 499.26 168.94 C518.1 188.66 521.2 215.09 522.07 241.19 C523.17 268.61 523.17 268.61 531.89 277.44 C540.72 284.52 552.6 286.85 563.31 289.68 C575.54 292.92 586.83 296.13 597.64 302.82 C598.17 303.14 598.17 303.14 600.87 304.79 C613.6 313.42 621.73 326.44 626.64 340.82 C626.97 341.8 627.31 342.79 627.66 343.81 C632.84 362.11 629.31 380.86 624.64 398.82 C624.4 399.73 624.17 400.64 623.92 401.58 C623.05 404.96 622.17 408.34 621.25 411.7 C618.04 423.4 616.63 434.76 622.64 445.82 C629.85 455.76 641.93 461.79 652.27 468.01 C671.69 479.73 686.02 494.18 691.95 516.47 C698.38 547.67 686.52 571.38 669.98 596.93 C656.77 617.42 656.77 617.42 658.64 629.82 C660.69 638.39 665.92 644.33 671.64 650.82 C687.15 668.51 703.1 687.2 704.64 711.82 C704.69 712.6 704.74 713.38 704.8 714.19 C705.23 726.96 702.33 739.42 696.64 750.82 C696.16 751.79 695.67 752.76 695.18 753.77 C687.22 768.58 673.95 779.91 661.07 790.38 C659.26 791.86 657.45 793.34 655.64 794.82 C654.73 795.55 653.83 796.28 652.9 797.03 C646.22 802.66 641.66 807.92 640.13 816.71 C639.31 830.68 646.13 844 651.8 856.4 C661.52 877.84 663.96 900.57 655.95 922.94 C644.18 949.93 618.78 962.48 593.01 973.17 C592.54 973.36 592.54 973.36 590.17 974.35 C588.37 975.1 586.56 975.83 584.75 976.55 C576.97 979.75 570.82 983.69 567.31 991.6 C566.04 995.77 566.14 999.87 566.26 1004.19 C566.27 1004.68 566.27 1004.68 566.3 1007.13 C566.42 1013 566.88 1018.75 567.64 1024.57 C570.58 1047.49 570.49 1070.85 556.79 1090.46 C554.82 1093 552.78 1095.42 550.64 1097.82 C549.96 1098.59 549.28 1099.36 548.58 1100.16 C528.88 1121.27 499.71 1123.41 472.57 1125.88 C454.28 1127.56 454.28 1127.56 447.64 1134.82 C441.44 1144.21 439.56 1155.55 437.19 1166.36 C436.94 1167.54 436.68 1168.71 436.42 1169.92 C435.91 1172.25 435.41 1174.59 434.92 1176.92 C431.37 1193.44 426.01 1208.07 414.64 1220.82 C413.96 1221.59 413.28 1222.36 412.58 1223.16 C400.25 1236.37 382.7 1244.11 364.72 1245.22 C348.87 1245.68 334.21 1242.76 318.81 1239.46 C308.41 1237.35 297.36 1235.87 287.64 1240.82 C280.4 1247.41 276.08 1256.08 271.51 1264.62 C270.95 1265.66 270.4 1266.7 269.83 1267.77 C268.73 1269.83 267.64 1271.9 266.56 1273.97 C255.73 1294.41 240.7 1310.81 218.64 1318.82 C194.31 1326.21 173.04 1318.47 151.53 1307.12 C145.41 1303.85 139.4 1300.41 133.52 1296.72 C125.71 1291.86 117.81 1288.7 108.5 1290.15 C98.02 1293.44 90.15 1303.17 82.67 1310.77 C79.15 1314.33 75.47 1317.62 71.64 1320.82 C70.83 1321.52 70.03 1322.23 69.2 1322.95 C50.19 1339.23 31.45 1344.61 6.64 1342.82 C-7.46 1341.24 -20.99 1333.14 -31.36 1323.82 C-32.17 1323.12 -32.98 1322.42 -33.8 1321.7 C-41.61 1314.83 -49.26 1307.62 -55.93 1299.63 C-62.06 1292.48 -68.9 1286.59 -78.49 1285.44 C-91.06 1286.66 -101.89 1293.58 -112.8 1299.44 C-134.78 1311.22 -158.16 1320.31 -183.36 1312.82 C-195.73 1308.81 -206.6 1302.38 -216.36 1293.82 C-216.74 1293.52 -216.74 1293.52 -218.62 1291.99 C-238.47 1275.5 -249.88 1250.13 -252.36 1224.82 C-253.81 1203.09 -248.32 1182.92 -240.29 1162.99 C-234.21 1147.88 -230.08 1132.88 -226.79 1116.89 C-226.02 1113.14 -225.21 1109.4 -224.41 1105.66 C-224.24 1104.88 -224.08 1104.1 -223.9 1103.29 C-223.39 1100.9 -222.88 1098.52 -222.36 1096.13 C-222.28 1095.73 -222.28 1095.73 -221.84 1093.72 C-210.08 1039.17 -191.96 986.22 -170.36 934.82 C-170.07 934.11 -169.77 933.4 -169.46 932.67 C-154.49 896.98 -138.85 861.31 -119.36 827.82 C-133.08 832.54 -146.69 837.51 -160.27 842.61 C-177.65 849.13 -195.06 855.55 -212.55 861.75 C-225.27 866.27 -237.97 870.84 -250.61 875.57 C-251.28 875.82 -251.95 876.07 -252.64 876.32 C-254.51 877.02 -256.38 877.72 -258.25 878.43 C-259.3 878.82 -260.34 879.21 -261.41 879.61 C-264.48 880.87 -267.42 882.3 -270.36 883.82 C-269.55 891.58 -267.87 899.1 -266.18 906.71 C-261.44 928.72 -264.14 949.39 -268.87 971.11 C-269.23 972.78 -269.59 974.46 -269.94 976.13 C-270.91 980.66 -271.89 985.19 -272.87 989.71 C-273.71 993.58 -274.54 997.45 -275.37 1001.32 C-283.32 1038.34 -291.48 1075.31 -299.65 1112.29 C-305.44 1138.53 -311.2 1164.79 -316.86 1191.07 C-317.02 1191.8 -317.18 1192.54 -317.34 1193.29 C-317.66 1194.77 -317.98 1196.24 -318.3 1197.71 C-319.08 1201.34 -319.86 1204.97 -320.64 1208.6 C-320.79 1209.31 -320.95 1210.01 -321.1 1210.74 C-323.5 1221.87 -325.93 1232.98 -328.37 1244.1 C-328.54 1244.86 -328.7 1245.62 -328.88 1246.41 C-330.22 1252.55 -331.57 1258.69 -332.93 1264.84 C-336.84 1282.62 -340.72 1300.41 -344.53 1318.22 C-344.7 1319.02 -344.87 1319.82 -345.04 1320.64 C-346.69 1328.31 -348.32 1335.99 -349.95 1343.66 C-355.25 1368.6 -355.25 1368.6 -358.15 1380.94 C-358.34 1381.78 -358.54 1382.61 -358.74 1383.47 C-362.82 1400.54 -374.76 1412.28 -389.4 1421.38 C-400.36 1427.94 -411.78 1433.7 -423.16 1439.48 C-424.81 1440.32 -426.46 1441.16 -428.11 1442 C-447.62 1451.98 -465.67 1457.13 -487.8 1457.12 C-489.03 1457.12 -490.26 1457.13 -491.53 1457.13 C-494.81 1457.14 -498.08 1457.14 -501.35 1457.13 C-503.38 1457.13 -505.41 1457.13 -507.44 1457.12 C-526.54 1457.09 -545.47 1456.93 -564.36 1453.82 C-564.88 1453.73 -564.88 1453.73 -567.49 1453.31 C-597.61 1448.24 -627.52 1438.86 -646.17 1413.23 C-646.91 1412.1 -647.64 1410.96 -648.36 1409.82 C-648.89 1409.01 -649.42 1408.21 -649.96 1407.38 C-655.32 1398.79 -658.36 1389.88 -661.43 1380.32 C-670.59 1351.92 -670.59 1351.92 -678.95 1346 C-686.32 1342.39 -692.99 1341.38 -701.14 1341.41 C-702.16 1341.4 -703.17 1341.39 -704.21 1341.38 C-707.43 1341.34 -710.65 1341.33 -713.86 1341.32 C-741.73 1341.22 -767.88 1339.01 -788.78 1318.42 C-789.21 1317.99 -789.21 1317.99 -791.36 1315.82 C-791.66 1315.54 -791.66 1315.54 -793.16 1314.12 C-806.15 1300.78 -809.26 1280.64 -809.65 1262.92 C-809.89 1252.39 -810.31 1241.95 -811.68 1231.5 C-811.78 1230.63 -811.89 1229.77 -812 1228.87 C-812.92 1222.44 -814.63 1216.57 -819.3 1211.86 C-828.43 1206.12 -838.21 1203.82 -848.61 1201.44 C-869.24 1196.68 -887.43 1189.12 -902.36 1173.82 C-903.03 1173.17 -903.69 1172.53 -904.38 1171.86 C-918.82 1156.9 -923.22 1135 -923.4 1114.9 C-922.28 1089.05 -911.24 1067.82 -892.61 1050.19 C-877.5 1037 -858.48 1030.21 -839.66 1024.14 C-829.59 1020.81 -820.63 1016.55 -812.8 1009.32 C-811.61 1008.26 -810.42 1007.21 -809.22 1006.16 C-808.91 1005.89 -808.91 1005.89 -807.33 1004.51 C-796.03 994.81 -783.93 986.28 -771.46 978.18 C-769.5 976.91 -767.57 975.61 -765.64 974.3 C-747.41 961.95 -728.43 950.81 -709.36 939.82 C-708.46 939.29 -707.55 938.77 -706.61 938.23 C-684.52 925.46 -662.08 913.42 -639.36 901.82 C-638.75 901.5 -638.13 901.19 -637.5 900.86 C-620.69 892.27 -603.8 884.07 -586.36 876.82 C-587.68 873.88 -589.08 871.88 -591.41 869.68 C-592 869.11 -592.6 868.53 -593.21 867.95 C-593.84 867.35 -594.47 866.75 -595.11 866.13 C-605.45 855.95 -613.35 844.63 -613.59 829.55 C-613.46 823.78 -612.84 818.14 -611.93 812.44 C-611.76 811.41 -611.6 810.38 -611.43 809.31 C-610.09 801.89 -607.79 795.44 -604.61 788.63 C-600.52 779.83 -598.53 773.04 -600.98 763.37 C-605.12 752.98 -615.51 744.4 -623.47 736.84 C-636.63 724.25 -646.8 707.7 -647.7 689.09 C-648.1 667.34 -641.56 648.67 -626.36 632.82 C-622.38 628.8 -618.36 624.81 -614.28 620.89 C-606.66 613.47 -598.15 604.88 -597.99 593.63 C-598.31 580.41 -607.21 568.7 -614.14 557.89 C-627.18 537.47 -632.35 518.25 -628.36 494 C-623.46 473.02 -609.19 456.7 -591.27 445.35 C-587.61 443.1 -583.87 440.97 -580.12 438.87 C-579.2 438.35 -578.28 437.84 -577.33 437.3 C-575.53 436.3 -573.72 435.31 -571.91 434.33 C-563.93 429.91 -555.26 424.41 -551.94 415.51 C-549.42 403.79 -552.02 392.24 -554.78 380.85 C-561.29 353.75 -563.23 327.6 -548.36 302.82 C-533.51 280.86 -511.67 273.44 -487.08 267.57 C-459.72 261.03 -459.72 261.03 -452.12 248.83 C-447.01 238.65 -447.25 227.18 -446.93 216.07 C-446.14 190.4 -440.64 167 -421.36 148.82 C-401.23 131.7 -377.27 130 -352.08 131.55 C-340.6 132.24 -329.35 132.82 -318.36 128.82 C-317.63 128.57 -316.89 128.32 -316.13 128.07 C-307.54 124.08 -304.22 112.86 -301.17 104.57 C-299.45 99.74 -297.76 94.9 -296.08 90.06 C-288.22 67.7 -275.95 49.53 -254.25 38.69 C-246.42 35.07 -238 32.23 -229.36 31.82 C-228.44 31.77 -227.51 31.72 -226.56 31.66 C-211.82 31.21 -198.56 35.12 -184.84 39.95 C-180.26 41.55 -175.66 43.09 -171.05 44.63 C-170.61 44.78 -170.61 44.78 -168.35 45.54 C-167.52 45.83 -166.68 46.11 -165.81 46.4 C-165.07 46.65 -164.33 46.9 -163.57 47.16 C-155.8 49.48 -146.95 50.62 -139.55 46.75 C-132.27 42.44 -127.16 35.51 -122.49 28.63 C-121.44 27.12 -120.4 25.62 -119.36 24.12 C-118.85 23.39 -118.34 22.66 -117.82 21.91 C-103.1 0.78 -86.19 -12.71 -60.37 -17.77 C-37.7 -20.89 -17.99 -13.37 0 0 Z M-69.63 38.29 C-76.36 44.52 -81.33 52.17 -86.3 59.82 C-98.34 78.12 -114.24 93.04 -136.18 97.82 C-142.34 98.81 -148.14 99.35 -154.36 98.82 C-155.51 98.73 -156.66 98.65 -157.85 98.56 C-170.72 97.17 -182.68 92.45 -194.75 88.02 C-195.47 87.75 -196.2 87.49 -196.95 87.21 C-198.33 86.71 -199.7 86.2 -201.07 85.68 C-210.88 82.05 -224.47 80.39 -234.49 84.25 C-247.63 91.69 -251.3 106.75 -255.94 120.04 C-261.6 136.22 -266.79 150.63 -279.36 162.82 C-279.93 163.39 -280.49 163.96 -281.07 164.55 C-294.79 177.5 -314.69 180.21 -332.69 179.91 C-335.2 179.89 -337.72 179.87 -340.24 179.85 C-344.16 179.8 -348.07 179.75 -351.99 179.7 C-355.81 179.65 -359.62 179.62 -363.44 179.59 C-364.6 179.57 -365.76 179.55 -366.96 179.53 C-375.33 179.48 -383.6 180.19 -390.02 186.19 C-399.95 198.18 -398.92 216.09 -399.89 230.87 C-400.82 244.85 -402.25 259.67 -409.05 272.19 C-409.39 272.84 -409.74 273.5 -410.09 274.17 C-418.84 290.24 -433.45 302.12 -450.96 307.63 C-459.29 310.03 -467.74 312.01 -476.2 313.9 C-500.71 319.38 -500.71 319.38 -508.61 328.38 C-515.62 342.13 -511.18 357.9 -507.86 372.13 C-501.81 398.46 -499.48 424.88 -514.36 448.82 C-517.12 452.43 -520.1 455.65 -523.36 458.82 C-523.65 459.12 -523.65 459.12 -525.12 460.63 C-532.9 468.14 -543.25 473.03 -552.67 478.18 C-576.9 491.43 -576.9 491.43 -581.36 504.82 C-583.29 522.37 -572.2 536.31 -563.08 550.33 C-551.03 569.16 -546.62 588.3 -551.2 610.44 C-555.91 629.93 -571.18 647.1 -586.49 659.35 C-589.36 661.81 -591.42 664.24 -593.61 667.32 C-594.28 668.23 -594.94 669.15 -595.63 670.1 C-599.21 675.72 -600.02 680.27 -599.36 686.82 C-596.59 698.3 -587.02 706.22 -578.86 714.19 C-561.99 730.76 -553.86 748.75 -550.76 772.3 C-550.36 774.82 -550.36 774.82 -549.36 776.82 C-542.63 776.24 -536.02 774.63 -531.26 769.59 C-525.86 761.68 -530.02 747.84 -531.39 738.75 C-544.17 652.75 -534.89 562.93 -454.95 365.45 C-453.47 362.99 -452 360.51 -450.54 358.04 C-436.83 335 -420.61 313.31 -403.36 292.82 C-402.54 291.82 -401.72 290.83 -400.87 289.8 C-392.59 279.83 -383.85 270.24 -374.65 261.11 C-372.33 258.81 -370.13 256.47 -368.05 253.94 C-364.69 250.06 -361.01 246.69 -357.16 243.3 C-354.6 241.03 -352.09 238.71 -349.58 236.37 C-344.29 231.41 -338.88 226.69 -333.22 222.15 C-330.58 219.99 -328 217.78 -325.43 215.53 C-297.1 190.86 -264.18 170.78 -231.08 153.26 C-228.69 151.99 -226.31 150.7 -223.94 149.39 C-163.96 116.43 -93.26 98.11 -25.36 91.82 C-24.45 91.73 -23.53 91.64 -22.58 91.56 C-5.54 89.99 11.4 89.45 28.51 89.5 C29.13 89.5 29.13 89.5 32.26 89.51 C52.87 89.56 73.19 90.33 93.64 92.82 C94.35 92.9 95.06 92.99 95.8 93.07 C178.13 102.92 260.86 130.16 332.64 177.82 C333.53 178.41 334.43 179.01 335.35 179.63 C341.81 183.97 348.24 188.38 354.64 192.82 C355.32 193.29 356.01 193.76 356.71 194.25 C365.77 200.5 374.33 207.3 382.81 214.31 C385.37 216.42 387.94 218.49 390.51 220.57 C394.9 224.16 399.13 227.89 403.32 231.72 C405.33 233.54 407.38 235.31 409.45 237.07 C414.96 241.86 420.03 247.13 425.16 252.32 C428.37 255.57 431.61 258.79 434.87 261.98 C441.13 268.12 447.06 274.29 452.5 281.18 C454.74 283.94 457.1 286.53 459.51 289.13 C464.78 294.86 469.55 300.91 474.29 307.07 C475.57 308.74 476.87 310.39 478.17 312.04 C484.22 319.74 489.82 327.71 495.3 335.83 C496.57 337.71 497.85 339.59 499.13 341.46 C506.07 351.65 512.43 362.17 518.64 372.82 C519.05 373.53 519.47 374.25 519.9 374.98 C560.79 445.53 584.79 524.72 593.01 605.69 C593.09 606.47 593.17 607.25 593.25 608.06 C595.03 625.85 595.85 643.63 595.82 661.5 C595.82 662.34 595.82 663.17 595.82 664.03 C595.67 744.85 577.73 824.32 477.64 1010.82 C477.22 1011.36 476.81 1011.9 476.38 1012.46 C466.69 1025.06 456.38 1037.11 445.64 1048.82 C445.16 1049.34 444.68 1049.87 444.18 1050.41 C437.04 1058.21 429.73 1065.83 422.26 1073.32 C421.52 1074.06 420.79 1074.8 420.03 1075.56 C415.39 1080.18 410.62 1084.57 405.64 1088.82 C405.37 1089.05 405.37 1089.05 404.02 1090.21 C396.31 1096.86 388.42 1103.21 380.38 1109.45 C378.67 1110.79 376.97 1112.14 375.27 1113.5 C355.17 1129.53 333.89 1143.92 311.64 1156.82 C310.81 1157.3 309.99 1157.78 309.14 1158.27 C284.76 1172.42 259.77 1184.32 233.64 1194.82 C233.11 1195.03 233.11 1195.03 230.45 1196.1 C191.15 1211.81 149.49 1221.86 107.64 1227.82 C106.58 1227.97 105.52 1228.12 104.43 1228.28 C13.61 1240.97 -81.66 1229.77 -167.42 1197.65 C-177.11 1194.04 -186.26 1192.07 -196.25 1195.7 C-200.28 1197.83 -203.46 1201.28 -205 1205.61 C-207.51 1220.9 -203.28 1235.74 -194.58 1248.41 C-188.03 1257.04 -180.14 1264.25 -169.36 1266.82 C-153.51 1268.81 -142.06 1261.75 -128.73 1254.34 C-107.5 1242.63 -84.87 1234.58 -60.49 1240.38 C-41.1 1246.34 -28.68 1259.29 -15.33 1273.7 C4.42 1294.94 4.42 1294.94 15.2 1296.09 C25.54 1296.44 31.85 1293.49 39.51 1286.69 C41.23 1285.07 42.93 1283.45 44.64 1281.82 C45.63 1280.91 46.62 1280.01 47.62 1279.11 C52.23 1274.94 56.76 1270.73 61.07 1266.25 C74.52 1252.76 90.62 1242.78 110.13 1242.43 C133.81 1242.49 153.01 1252.37 172.96 1264.45 C182.08 1269.95 190.72 1274.57 201.64 1273.82 C212.91 1270.33 219.75 1260.82 225.27 1250.87 C226.88 1247.76 228.45 1244.64 230.01 1241.5 C234.65 1232.41 239.35 1223.87 245.64 1215.82 C246.18 1215.08 246.72 1214.34 247.28 1213.59 C258.29 1199.71 276.52 1191.94 293.64 1189.82 C309.88 1188.68 325.55 1192.28 341.3 1195.78 C352.81 1198.28 363.88 1199.63 374.32 1193.19 C388.21 1183.15 389.9 1165.82 393.06 1150.15 C397.1 1130.28 401.92 1112.61 416.64 1097.82 C417.15 1097.26 417.67 1096.71 418.21 1096.14 C432.23 1082.53 453.63 1079.77 472.14 1078.39 C506.26 1075.84 506.26 1075.84 517.07 1064.19 C524.37 1053.1 521.61 1039.46 520.14 1026.94 C517.3 1000.81 516.94 976.86 532.89 954.69 C539.06 947.38 546.39 942.47 554.64 937.82 C555.56 937.3 556.48 936.78 557.43 936.24 C563.95 932.81 570.75 930.12 577.57 927.38 C606.42 915.72 606.42 915.72 611.64 904 C615.86 889.83 608.98 875.98 603.14 863.32 C593.39 842.2 588.09 819.44 595.92 796.75 C600.56 784.26 607.04 774.99 616.64 765.82 C617.14 765.33 617.65 764.84 618.17 764.34 C623.31 759.41 628.64 754.77 634.2 750.32 C655.28 733.23 655.28 733.23 656.88 719.81 C657.32 707.11 650.08 698.66 641.84 689.79 C640.83 688.72 639.83 687.64 638.82 686.57 C619.45 665.76 609.6 646.95 610.3 617.86 C611.16 598 621.11 582.39 632.64 566.89 C640.41 556.43 646.5 545.93 645.46 532.5 C643.71 522.26 637.5 516.11 629.31 510.26 C624.21 506.81 618.95 503.59 613.72 500.34 C593.1 487.41 576.72 471.94 571.1 447.48 C568.1 430.2 570.87 412.45 575.64 395.82 C575.75 395.4 575.75 395.4 576.35 393.32 C576.81 391.71 577.27 390.11 577.73 388.5 C581.33 375.88 584.16 362.71 577.89 350.38 C569.67 341.02 559.81 338.39 547.99 335.44 C536.88 332.65 526.01 329.76 515.64 324.82 C514.65 324.36 513.67 323.9 512.66 323.43 C505.66 319.91 500.17 315.33 494.64 309.82 C494 309.2 493.36 308.59 492.7 307.95 C477.67 292.32 476.15 270.15 475.07 249.69 C473.03 212.2 473.03 212.2 464.21 202.2 C453.44 193.16 435.3 195.36 422.26 195.32 C389.43 195.2 389.43 195.2 375.26 188.57 C374.6 188.26 373.93 187.96 373.24 187.65 C367.75 185.05 363.1 181.96 358.64 177.82 C357.88 177.14 357.12 176.46 356.34 175.76 C341.6 161.88 336.35 142.6 330.46 123.85 C326.71 111.94 322.71 99.85 311.64 92.82 C297.27 86.48 279.07 94.33 265.44 99.52 C244.25 107.58 223.52 110.23 202.17 101.38 C185.14 92.95 174.22 77.9 164.02 62.38 C156.08 50.35 147.54 38.3 133.07 34.07 C123.34 33.07 116.83 35.47 109.07 41.32 C108.48 41.75 107.89 42.18 107.28 42.63 C104.13 44.94 101.01 47.29 97.89 49.64 C89.77 55.72 81.63 61.09 72.64 65.82 C71.72 66.31 70.79 66.8 69.84 67.31 C54.23 75.08 36.17 76 19.64 70.82 C6.5 65.89 -4.36 57.3 -15.36 48.82 C-17.57 47.12 -19.78 45.44 -22 43.75 C-23.32 42.75 -24.63 41.74 -25.94 40.72 C-39.73 30.2 -55.28 27.09 -69.63 38.29 Z M-35.36 139.82 C-36.06 139.91 -36.76 140.01 -37.49 140.11 C-92.6 147.82 -145.24 163.6 -195.36 187.82 C-196.5 188.36 -197.63 188.91 -198.81 189.47 C-218.92 199.18 -237.99 210.12 -256.36 222.82 C-257.03 223.28 -257.69 223.73 -258.38 224.21 C-273.98 234.99 -289.04 246.38 -303.36 258.82 C-304.1 259.45 -304.83 260.08 -305.59 260.74 C-307.52 262.42 -309.45 264.11 -311.36 265.82 C-312.06 266.43 -312.75 267.05 -313.47 267.68 C-316.12 270.04 -318.75 272.42 -321.36 274.82 C-321.98 275.38 -322.59 275.94 -323.23 276.52 C-333.75 286.2 -343.73 296.25 -353.36 306.82 C-354.23 307.75 -355.09 308.69 -355.98 309.66 C-361.34 315.53 -366.38 321.62 -371.36 327.82 C-372.29 328.95 -373.21 330.08 -374.14 331.21 C-390.65 351.5 -405.25 373.19 -418.36 395.82 C-418.72 396.43 -419.07 397.04 -419.44 397.67 C-422.14 402.35 -424.76 407.08 -427.36 411.82 C-427.77 412.56 -428.18 413.29 -428.6 414.05 C-468.7 486.72 -488.51 570.14 -490.36 652.82 C-490.38 653.61 -490.41 654.39 -490.43 655.21 C-491.04 679.16 -489.31 703.25 -485.86 726.94 C-485.81 727.31 -485.81 727.31 -485.54 729.18 C-484.42 736.79 -483.16 744.33 -481.36 751.82 C-476.22 751.17 -471.73 749.63 -466.92 747.82 C-466.09 747.51 -465.27 747.2 -464.42 746.88 C-461.69 745.87 -458.96 744.84 -456.24 743.82 C-454.31 743.1 -452.38 742.37 -450.46 741.65 C-437 736.61 -423.58 731.45 -410.18 726.25 C-358.1 706.07 -305.83 686.68 -252.2 671.01 C-250.35 670.47 -248.5 669.92 -246.66 669.37 C-244.53 668.74 -242.4 668.12 -240.26 667.52 C-232.64 665.27 -224.6 661.94 -220.36 654.82 C-221.48 651.47 -222.34 650.76 -224.99 648.57 C-227.73 646.24 -230.35 643.89 -232.86 641.32 C-235.21 638.93 -237.62 636.72 -240.18 634.57 C-259.52 617.72 -273.98 593.43 -277.11 567.75 C-277.23 566.11 -277.31 564.46 -277.36 562.82 C-277.4 561.76 -277.44 560.71 -277.48 559.62 C-277.82 541.71 -274.71 523.78 -266.36 507.82 C-265.87 506.86 -265.38 505.91 -264.88 504.93 C-252.47 482.28 -232.25 466.44 -207.74 458.57 C-180.46 450.7 -151.17 452.92 -126.1 466.6 C-110.29 475.71 -96.91 489.54 -84.93 503.11 C-84.39 503.71 -83.85 504.31 -83.29 504.93 C-82.82 505.46 -82.35 506 -81.86 506.55 C-80.05 508.08 -78.71 508.52 -76.36 508.82 C-74.47 507.66 -74.47 507.66 -72.55 505.88 C-71.93 505.31 -71.3 504.75 -70.66 504.16 C-68.84 502.3 -67.17 500.42 -65.49 498.44 C-60.3 492.5 -54.67 487 -49.09 481.44 C-47.91 480.26 -46.73 479.09 -45.55 477.91 C-42.47 474.84 -39.39 471.77 -36.31 468.7 C-33.16 465.56 -30.01 462.41 -26.86 459.27 C-20.7 453.11 -14.53 446.96 -8.36 440.82 C-12.21 432.78 -19.5 426.61 -25.8 420.43 C-26.36 419.87 -26.93 419.31 -27.52 418.74 C-29.86 416.44 -32.21 414.14 -34.57 411.86 C-55.16 391.92 -70.67 367.13 -71.57 337.66 C-71.99 306.85 -62.9 280.33 -41.61 257.63 C-28.55 245.22 -12.77 237.22 4.64 232.82 C5.52 232.59 6.4 232.37 7.3 232.13 C33.35 226.68 60.53 232.08 82.89 246.07 C106.27 261.44 120.06 284.82 126.45 311.82 C131.59 340.06 124.7 368.3 108.64 391.82 C104.27 397.89 99.41 403.25 94.01 408.42 C92.04 410.41 90.23 412.43 88.41 414.55 C83.75 419.94 78.59 424.82 73.43 429.73 C73.06 430.08 73.06 430.08 71.21 431.89 C70.55 432.53 69.88 433.16 69.2 433.81 C67.28 436.28 66.81 437.69 66.64 440.82 C68.25 443.15 68.25 443.15 70.73 445.57 C71.64 446.49 72.56 447.4 73.51 448.34 C74.53 449.33 75.55 450.32 76.57 451.31 C77.61 452.33 78.65 453.36 79.69 454.39 C82.43 457.1 85.19 459.79 87.95 462.48 C91.27 465.73 94.58 468.99 97.89 472.25 C100.47 474.8 103.06 477.34 105.65 479.87 C110.35 484.47 114.93 489.1 119.19 494.11 C121.61 496.96 124.17 499.68 126.76 502.38 C127.26 502.92 127.76 503.47 128.27 504.03 C131.94 507.81 131.94 507.81 134.9 507.85 C138.95 506.32 141.29 503.57 144.23 500.47 C144.86 499.83 145.49 499.19 146.13 498.52 C148.81 495.78 151.46 493.02 154.11 490.26 C176.03 467.51 200.9 454.47 232.89 453.5 C257.42 453.99 282.36 462.07 300.64 478.82 C301.37 479.46 302.1 480.1 302.85 480.75 C321.77 498.31 332.51 524.18 333.84 549.72 C334.4 578.74 324.84 605.38 304.94 626.63 C300.23 631.44 295.37 636.1 290.49 640.75 C288.67 642.49 286.86 644.25 285.06 646.01 C284.5 646.54 283.94 647.06 283.36 647.61 C279.68 651.21 279.68 651.21 279.49 653.86 C281.13 656.67 283.19 658.68 285.52 660.96 C286.01 661.44 286.5 661.93 287.01 662.43 C288.59 663.98 290.17 665.52 291.76 667.07 C293.83 669.09 295.89 671.12 297.96 673.14 C298.46 673.63 298.95 674.12 299.47 674.63 C303.4 678.53 307.07 682.59 310.64 686.82 C311.35 687.61 312.06 688.4 312.79 689.22 C331.37 711.02 335.21 739.17 333.64 766.82 C332.98 772.73 331.54 778.2 329.64 783.82 C329.42 784.46 329.21 785.1 328.99 785.76 C320.27 811.19 302.06 831.52 278.16 843.57 C252.09 855.31 222.53 856.58 195.67 846.75 C175.98 839.11 162.18 825.71 147.87 810.78 C146.11 808.95 144.33 807.13 142.55 805.31 C142.28 805.02 142.28 805.02 140.92 803.59 C139.4 802.04 139.4 802.04 136.64 799.82 C133.22 800.11 131.36 801.64 128.87 803.9 C128.17 804.54 127.48 805.17 126.76 805.82 C123.41 808.97 120.13 812.18 116.88 815.44 C116.18 816.14 115.47 816.85 114.75 817.57 C113.27 819.05 111.79 820.52 110.32 822 C108.08 824.25 105.84 826.49 103.59 828.73 C102.15 830.17 100.7 831.62 99.26 833.06 C98.6 833.72 97.94 834.38 97.26 835.06 C93.41 838.92 89.78 842.9 86.22 847.02 C84.24 849.26 82.15 851.34 79.98 853.39 C79.58 853.78 79.58 853.78 77.57 855.72 C75.92 857.31 74.27 858.89 72.61 860.46 C71.82 861.22 71.04 861.98 70.23 862.77 C69.52 863.45 68.8 864.13 68.06 864.84 C66.64 866.82 66.64 866.82 66.74 868.86 C71.09 878.39 82.29 886.5 89.73 893.74 C106.3 909.9 119.66 927.5 126.64 949.82 C126.81 950.34 126.81 950.34 127.67 952.99 C134.29 977.66 129.61 1004.66 117.64 1026.82 C114.6 1032.04 111.22 1036.96 107.64 1041.82 C107.08 1042.58 106.52 1043.35 105.94 1044.14 C91.25 1062.41 65.92 1074.69 42.94 1077.6 C12.54 1080.44 -13.44 1073.26 -37.24 1054.25 C-38.96 1052.79 -40.67 1051.31 -42.36 1049.82 C-43.06 1049.22 -43.75 1048.62 -44.47 1048 C-60.72 1032.98 -71.38 1008.31 -72.49 986.35 C-73.21 961.2 -68.54 936.57 -52.54 916.31 C-52.07 915.71 -51.6 915.11 -51.11 914.5 C-45.16 907.12 -38.39 900.55 -31.61 893.94 C-29.07 891.45 -26.54 888.95 -24 886.45 C-23.41 885.86 -22.81 885.28 -22.2 884.67 C-18.5 881 -14.95 877.26 -11.59 873.26 C-10.36 871.82 -10.36 871.82 -8.36 869.82 C-8.64 866.06 -10.58 864.24 -13.18 861.68 C-13.98 860.87 -14.79 860.07 -15.62 859.24 C-16.5 858.38 -17.38 857.52 -18.29 856.63 C-18.74 856.19 -18.74 856.19 -21.01 853.93 C-23.41 851.56 -25.8 849.19 -28.2 846.83 C-31.58 843.5 -34.94 840.17 -38.31 836.84 C-40.1 835.07 -41.89 833.3 -43.69 831.53 C-44.5 830.72 -45.32 829.92 -46.16 829.08 C-46.88 828.38 -47.59 827.67 -48.33 826.95 C-50.5 824.68 -52.44 822.29 -54.36 819.82 C-58 821.28 -59.54 823.08 -61.7 826.31 C-62.3 827.21 -62.91 828.11 -63.53 829.03 C-64.14 829.95 -64.74 830.87 -65.36 831.82 C-65.91 832.64 -66.46 833.46 -67.03 834.31 C-97.76 880.71 -119.34 932.53 -139.35 984.22 C-140.24 986.49 -141.12 988.75 -142.01 991.02 C-154.88 1023.93 -165.3 1058.22 -173.8 1092.5 C-173.98 1093.22 -174.16 1093.93 -174.34 1094.67 C-182.38 1127.34 -182.38 1127.34 -175.36 1139.82 C-170.23 1146.79 -163.68 1149.07 -155.68 1151.69 C-154.44 1152.11 -153.21 1152.53 -151.94 1152.97 C-148.71 1154.06 -145.48 1155.13 -142.25 1156.19 C-139.3 1157.17 -136.36 1158.17 -133.42 1159.18 C-52.37 1186.39 35.82 1192.84 261.62 1130.87 C286.08 1118.59 309.58 1104.02 331.64 1087.82 C332.7 1087.04 333.76 1086.26 334.85 1085.46 C337.8 1083.27 340.72 1081.05 343.64 1078.82 C344.18 1078.4 344.72 1077.98 345.28 1077.56 C358.36 1067.49 370.81 1056.78 382.84 1045.49 C384.8 1043.66 386.77 1041.85 388.74 1040.03 C402.67 1027.12 415.48 1013.4 427.64 998.82 C428.15 998.2 428.66 997.59 429.19 996.96 C442.61 980.86 454.85 964.04 466.05 946.33 C467.6 943.88 469.17 941.45 470.74 939.01 C492.34 905.27 509.06 868.82 521.64 830.82 C521.83 830.23 521.83 830.23 522.82 827.25 C533.09 795.97 540.51 763.96 544.82 731.32 C544.9 730.74 544.9 730.74 545.29 727.8 C548 706.21 549.02 684.63 548.95 662.88 C548.95 661.69 548.95 660.5 548.94 659.27 C548.89 639.3 548.13 619.63 545.64 599.82 C545.55 599.11 545.46 598.41 545.37 597.69 C542.85 577.51 539.39 557.6 534.64 537.82 C534.36 536.66 534.08 535.5 533.8 534.31 C521.47 483.56 501.55 433.09 473.64 388.82 C472.55 387.06 471.46 385.31 470.38 383.56 C459.78 366.56 448.2 350.41 435.64 334.82 C434.89 333.89 434.14 332.96 433.38 332 C419.23 314.55 404.11 298.21 388.26 282.32 C387.75 281.8 387.23 281.28 386.7 280.74 C380.86 274.88 374.95 269.18 368.64 263.82 C367.55 262.87 366.47 261.92 365.39 260.96 C357.12 253.75 348.54 247.01 339.76 240.42 C337.7 238.86 335.65 237.29 333.6 235.72 C324.26 228.56 314.63 222.03 304.64 215.82 C303.89 215.35 303.15 214.89 302.39 214.41 C226.66 167.29 136.63 136.95 46.9 136.61 C45.64 136.61 44.37 136.6 43.07 136.59 C39.01 136.57 34.95 136.57 30.89 136.57 C30.19 136.57 29.5 136.57 28.79 136.57 C7.27 136.56 -14.01 136.84 -35.36 139.82 Z M-9.36 298.82 C-18.55 310.38 -21.66 323.32 -20.59 337.83 C-19.01 351.64 -10.57 362.09 -1.36 371.82 C-0.31 372.96 0.75 374.11 1.8 375.25 C10.18 384.35 18.84 393.13 27.64 401.82 C31.08 400.33 33.31 398.39 35.94 395.75 C36.75 394.93 37.56 394.12 38.4 393.28 C39.24 392.42 40.08 391.57 40.95 390.69 C41.78 389.86 42.61 389.03 43.46 388.18 C48.39 383.21 53.09 378.12 57.64 372.82 C58.52 371.83 59.39 370.85 60.3 369.83 C70.61 357.95 77.15 344.83 76.91 328.82 C75.89 317.57 72.7 307.73 65.64 298.82 C65.06 298.09 64.49 297.36 63.9 296.61 C56.18 287.95 43.94 282.36 32.43 281.61 C15.8 281.14 2 286.55 -9.36 298.82 Z M25.01 477.98 C24.49 478.51 23.97 479.05 23.43 479.6 C22.84 480.19 22.25 480.79 21.65 481.4 C21.05 482.03 20.45 482.67 19.82 483.32 C19.53 483.62 19.53 483.62 18.03 485.14 C15.09 488.15 12.27 491.23 9.54 494.43 C5.14 499.47 0.4 504.16 -4.35 508.86 C-5.29 509.81 -6.24 510.75 -7.19 511.69 C-10.16 514.65 -13.14 517.61 -16.11 520.57 C-19.1 523.54 -22.09 526.51 -25.08 529.48 C-26.93 531.33 -28.79 533.17 -30.65 535.01 C-31.07 535.43 -31.07 535.43 -33.19 537.54 C-33.92 538.27 -34.66 539 -35.42 539.76 C-37.24 541.68 -38.82 543.66 -40.36 545.82 C-38.83 549.47 -36.64 551.76 -33.82 554.52 C-32.91 555.42 -32 556.32 -31.06 557.24 C-30.1 558.18 -29.14 559.12 -28.18 560.07 C-26.3 561.9 -24.44 563.74 -22.57 565.58 C-21.74 566.39 -20.91 567.21 -20.05 568.04 C-17.98 570.18 -16.02 572.34 -14.08 574.59 C-7.81 581.81 -0.98 588.5 5.75 595.28 C7.48 597.02 9.2 598.77 10.91 600.52 C13.39 603.06 15.89 605.58 18.4 608.1 C18.78 608.5 18.78 608.5 20.72 610.49 C21.44 611.21 22.16 611.92 22.9 612.66 C23.52 613.3 24.15 613.93 24.8 614.59 C26.64 615.82 26.64 615.82 28.76 615.59 C38.42 611.6 47.8 599.17 54.38 591.22 C55.64 589.82 55.64 589.82 58.07 587.88 C60.21 586.16 61.64 584.69 63.37 582.61 C66.93 578.49 70.75 574.66 74.63 570.83 C75.26 570.21 75.9 569.58 76.55 568.93 C79.22 566.31 81.88 563.68 84.56 561.07 C86.52 559.14 88.48 557.21 90.44 555.27 C91.05 554.68 91.66 554.09 92.28 553.49 C92.84 552.93 93.4 552.38 93.97 551.81 C94.46 551.32 94.96 550.84 95.46 550.35 C96.9 548.47 97.43 547.17 97.64 544.82 C95.7 542.53 93.82 540.58 91.64 538.57 C88.13 535.25 84.71 531.97 81.59 528.29 C76.89 522.89 71.85 517.83 66.81 512.75 C66.31 512.24 65.8 511.73 65.28 511.2 C62.6 508.51 59.93 505.82 57.25 503.13 C54.48 500.36 51.73 497.57 48.99 494.79 C46.86 492.64 44.73 490.5 42.6 488.36 C41.58 487.33 40.56 486.31 39.55 485.28 C38.14 483.84 36.72 482.42 35.29 481 C34.49 480.19 33.68 479.38 32.85 478.55 C30.12 476.42 28 475.85 25.01 477.98 Z M-214.36 521.82 C-224.3 534.58 -227 548 -225.36 563.82 C-222.29 579.6 -210.51 591.99 -198.47 601.95 C-196.74 603.48 -195.18 605.03 -193.6 606.72 C-193.12 607.23 -192.63 607.74 -192.13 608.26 C-190.74 609.75 -189.36 611.25 -187.98 612.75 C-185.36 614.82 -185.36 614.82 -183.09 614.8 C-179.28 613.42 -176.92 610.91 -174.15 608.08 C-173.85 607.78 -173.85 607.78 -172.33 606.26 C-170.35 604.28 -168.38 602.29 -166.42 600.3 C-165.04 598.92 -163.67 597.54 -162.29 596.16 C-159.41 593.27 -156.53 590.37 -153.66 587.47 C-149.98 583.75 -146.29 580.05 -142.6 576.35 C-139.08 572.81 -135.56 569.27 -132.04 565.73 C-131.71 565.4 -131.71 565.4 -130.01 563.69 C-128.11 561.78 -126.21 559.86 -124.32 557.95 C-123.75 557.38 -123.19 556.82 -122.62 556.24 C-115.36 548.88 -115.36 548.88 -115.37 545.9 C-116.82 542.86 -118.91 540.88 -121.29 538.49 C-121.79 537.99 -122.3 537.48 -122.81 536.96 C-123.88 535.89 -124.96 534.82 -126.03 533.75 C-127.64 532.16 -129.24 530.55 -130.83 528.94 C-148.04 511.69 -148.04 511.69 -159.24 507.82 C-160.27 507.44 -161.3 507.07 -162.35 506.69 C-181.41 501.15 -201.03 507.27 -214.36 521.82 Z M184.43 532.67 C183.43 533.66 182.42 534.64 181.41 535.61 C179.93 537.04 178.46 538.48 177 539.93 C176.14 540.77 175.27 541.62 174.38 542.49 C172.64 544.82 172.64 544.82 172.87 546.78 C174.19 550.28 177.03 552.63 179.64 555.22 C180.26 555.85 180.89 556.49 181.53 557.14 C183.61 559.23 185.69 561.31 187.78 563.39 C189.22 564.84 190.67 566.29 192.11 567.74 C195.14 570.77 198.17 573.81 201.21 576.83 C205.1 580.72 208.98 584.61 212.85 588.52 C215.83 591.51 218.82 594.5 221.81 597.49 C223.24 598.92 224.67 600.36 226.1 601.79 C228.1 603.81 230.11 605.8 232.12 607.8 C232.71 608.4 233.29 609 233.9 609.61 C236.96 612.62 239.21 614.76 243.64 614.82 C245.84 613.31 245.84 613.31 248.03 611.04 C248.84 610.22 249.65 609.39 250.49 608.54 C251.32 607.66 252.15 606.78 253.01 605.88 C253.84 605.03 254.66 604.19 255.51 603.32 C269.4 589.02 282.17 574.86 282.95 554 C282.56 540.38 277.67 528.84 268.32 518.94 C257.93 509.19 245.47 504.36 231.22 504.61 C210.67 506.29 198.35 518.92 184.43 532.67 Z M-81.01 585.09 C-81.3 585.39 -81.3 585.39 -82.81 586.9 C-83.48 587.58 -84.16 588.25 -84.86 588.95 C-85.59 589.69 -86.32 590.43 -87.07 591.19 C-87.82 591.95 -88.58 592.71 -89.36 593.49 C-90.96 595.1 -92.56 596.71 -94.16 598.33 C-96.58 600.78 -99.02 603.23 -101.45 605.67 C-103.01 607.24 -104.57 608.81 -106.13 610.38 C-106.85 611.1 -107.57 611.83 -108.31 612.57 C-112.31 616.63 -116.13 620.78 -119.85 625.09 C-121.57 627.06 -123.38 628.92 -125.26 630.74 C-125.9 631.37 -126.55 632 -127.21 632.66 C-128.54 633.95 -129.87 635.24 -131.2 636.52 C-131.84 637.15 -132.47 637.78 -133.13 638.43 C-133.71 638.98 -134.28 639.54 -134.87 640.11 C-136.44 641.91 -137.39 643.64 -138.36 645.82 C-128.89 645.25 -119.58 644.25 -110.18 642.94 C-83.36 639.32 -56.35 637.56 -29.36 635.82 C-31.35 624.02 -47.63 612.21 -55.69 604.18 C-58.26 601.61 -60.83 599.02 -63.39 596.43 C-65.02 594.79 -66.66 593.16 -68.29 591.52 C-69.06 590.75 -69.82 589.97 -70.61 589.17 C-70.97 588.82 -70.97 588.82 -72.77 587.04 C-73.08 586.73 -73.08 586.73 -74.66 585.15 C-77.06 583.28 -78.59 583.22 -81.01 585.09 Z M131.77 585.32 C131.07 586.02 130.37 586.73 129.64 587.45 C128.85 588.25 128.05 589.04 127.22 589.86 C126.37 590.73 125.51 591.61 124.62 592.5 C123.73 593.39 122.84 594.29 121.93 595.2 C120.04 597.1 118.16 598.99 116.28 600.89 C113.89 603.31 111.49 605.72 109.09 608.12 C106.79 610.43 104.48 612.75 102.18 615.07 C101.33 615.92 100.48 616.78 99.6 617.66 C95.27 622.05 91.06 626.5 87.04 631.19 C82.88 636.02 78.22 640.36 73.39 644.5 C70.43 647.04 67.94 649.65 65.64 652.82 C67.29 656.9 70.18 659.8 73.16 662.95 C73.46 663.27 73.46 663.27 74.98 664.88 C84.41 674.82 94.1 684.51 103.78 694.2 C106.66 697.08 109.53 699.98 112.39 702.87 C114.62 705.12 116.86 707.36 119.1 709.6 C120.16 710.67 121.22 711.73 122.28 712.8 C123.74 714.29 125.22 715.76 126.7 717.24 C127.54 718.08 128.37 718.91 129.23 719.78 C131.64 721.82 133.65 722.84 136.64 723.82 C137.48 722.9 138.32 721.99 139.19 721.05 C151.73 707.54 164.78 694.55 177.84 681.54 C180.87 678.52 183.9 675.5 186.93 672.47 C192.83 666.58 198.73 660.7 204.64 654.82 C199.98 644.29 188.45 635.45 180.4 627.37 C179.78 626.75 179.16 626.13 178.53 625.49 C175.28 622.23 172.02 618.97 168.77 615.71 C165.41 612.34 162.06 608.97 158.71 605.59 C156.13 602.99 153.54 600.39 150.94 597.8 C149.71 596.56 148.47 595.31 147.24 594.07 C145.52 592.33 143.79 590.61 142.07 588.89 C141.81 588.63 141.81 588.63 140.53 587.32 C135.48 582.34 135.48 582.34 131.77 585.32 Z M-62.3 684.57 C-63.11 684.61 -63.91 684.65 -64.75 684.7 C-130.87 688.3 -197.18 701.14 -260.36 720.82 C-261.1 721.04 -261.83 721.27 -262.58 721.51 C-307.41 735.49 -351.14 752.33 -394.9 769.28 C-398.64 770.73 -402.38 772.18 -406.11 773.63 C-406.57 773.81 -406.57 773.81 -408.89 774.71 C-421.48 779.58 -434.1 784.35 -446.76 789.02 C-464.75 795.66 -482.63 802.54 -500.52 809.42 C-506.38 811.67 -512.23 813.91 -518.09 816.15 C-521.74 817.54 -525.39 818.94 -529.03 820.33 C-530.74 820.98 -532.45 821.63 -534.16 822.28 C-536.5 823.18 -538.85 824.07 -541.19 824.97 C-541.54 825.1 -541.54 825.1 -543.28 825.76 C-546.24 826.9 -548.71 828.04 -551.36 829.82 C-551.1 836.26 -548.85 840.21 -544.36 844.82 C-539.46 848.49 -534.67 849.96 -528.61 850 C-527.81 850.02 -527.01 850.03 -526.19 850.05 C-517.81 849.36 -510.01 845.96 -502.18 843.11 C-453.35 825.42 -402.93 814.17 -351.74 805.82 C-350.81 805.66 -349.89 805.51 -348.94 805.35 C-317.36 800.13 -317.36 800.13 -306.36 806.82 C-301.19 812.1 -298.33 818.42 -295.11 825 C-290.85 833.46 -290.85 833.46 -286.36 835.82 C-279.13 836.81 -272.96 834.37 -266.18 832 C-264.99 831.6 -263.8 831.19 -262.58 830.77 C-250.44 826.58 -238.46 822.02 -226.48 817.4 C-219.69 814.79 -212.9 812.19 -206.1 809.6 C-204.4 808.95 -202.69 808.3 -200.99 807.65 C-188.72 802.97 -176.44 798.34 -164.14 793.73 C-163.44 793.47 -162.73 793.21 -162 792.93 C-154.93 790.29 -147.85 787.64 -140.78 785 C-84.86 764.13 -84.86 764.13 -69.36 749.82 C-68.71 749.24 -68.06 748.67 -67.38 748.08 C-57.03 738.54 -49.8 725.5 -42.66 713.54 C-38.32 706.29 -33.75 699.25 -28.92 692.31 C-28.45 691.63 -27.98 690.94 -27.5 690.24 C-27.08 689.65 -26.67 689.05 -26.24 688.44 C-25.36 686.82 -25.36 686.82 -25.36 683.82 C-37.7 683.72 -49.98 683.9 -62.3 684.57 Z M238.2 693.92 C237.24 694.89 236.29 695.87 235.34 696.86 C234.83 697.37 234.32 697.89 233.79 698.43 C232.15 700.09 230.52 701.77 228.89 703.44 C226.75 705.62 224.61 707.8 222.47 709.98 C222.21 710.24 222.21 710.24 220.9 711.57 C217.84 714.67 214.69 717.55 211.32 720.31 C209.5 721.94 207.97 723.67 206.39 725.54 C202.9 729.57 199.19 733.31 195.35 737.02 C194.01 738.34 192.66 739.66 191.31 740.99 C189.21 743.04 187.11 745.1 184.99 747.14 C182.94 749.13 180.9 751.13 178.85 753.14 C178.54 753.45 178.54 753.45 176.92 754.99 C175.17 756.74 175.17 756.74 172.64 759.82 C173.07 764.28 176.13 766.8 179.15 769.83 C179.71 770.41 180.28 770.98 180.86 771.57 C182.06 772.79 183.27 774 184.48 775.21 C186.29 777.03 188.07 778.87 189.86 780.71 C202.46 793.5 215.64 801.63 234.07 802.25 C247.83 801.93 259.55 796.92 269.45 787.44 C279.45 776.84 283.28 764.92 283.11 750.42 C282.28 729.3 267.2 713.67 252.51 700.07 C250.7 698.41 248.88 696.75 247.05 695.11 C245.88 694.04 244.75 692.93 243.64 691.82 C240.64 691.82 240.64 691.82 238.2 693.92 Z M28.39 696.95 C27.46 697.94 26.55 698.94 25.64 699.94 C25.14 700.48 24.65 701.02 24.15 701.58 C19.3 707.02 15.1 712.83 10.99 718.84 C9.55 720.94 8.1 723.03 6.65 725.12 C0.49 734.02 -5.51 743.01 -11.43 752.07 C-12.06 753.03 -12.69 754 -13.34 754.99 C-23.36 770.39 -23.36 770.39 -23.36 775.82 C-18.12 786.3 -7.47 794.83 0.76 802.94 C6.96 809.05 12.98 815.2 18.64 821.82 C20.18 823.52 21.74 825.22 23.32 826.88 C23.69 827.27 23.69 827.27 25.52 829.23 C27.64 830.82 27.64 830.82 29.57 830.6 C31.92 829.71 33.09 828.72 34.84 826.94 C35.43 826.35 36.01 825.76 36.61 825.16 C36.91 824.84 36.91 824.84 38.45 823.25 C39.08 822.62 39.7 821.98 40.35 821.32 C44.05 817.53 47.58 813.65 51 809.61 C53.53 806.84 56.36 804.46 59.23 802.07 C61.16 800.26 62.78 798.5 64.48 796.49 C68.02 792.38 71.83 788.61 75.7 784.83 C76.34 784.21 76.98 783.58 77.64 782.93 C80.32 780.3 83 777.68 85.71 775.07 C87.69 773.15 89.67 771.21 91.64 769.27 C92.25 768.68 92.87 768.09 93.51 767.49 C95.2 765.81 95.2 765.81 97.64 762.82 C97.2 758.18 93.83 755.6 90.68 752.49 C90.06 751.86 89.44 751.24 88.8 750.59 C86.74 748.53 84.68 746.48 82.61 744.43 C81.18 743 79.75 741.57 78.32 740.14 C75.33 737.14 72.33 734.16 69.33 731.17 C65.47 727.34 61.62 723.49 57.78 719.64 C54.84 716.69 51.88 713.75 48.93 710.8 C47.51 709.38 46.09 707.97 44.67 706.55 C42.69 704.57 40.71 702.6 38.72 700.63 C38.13 700.04 37.54 699.44 36.94 698.83 C31.77 693.74 31.77 693.74 28.39 696.95 Z M-461.74 878.5 C-462.6 878.78 -463.46 879.06 -464.35 879.34 C-489.25 887.37 -489.25 887.37 -492.84 893.19 C-493.36 894.39 -493.88 895.58 -494.43 896.82 C-494.7 897.41 -494.7 897.41 -496.09 900.44 C-500.63 912.44 -499.06 925.7 -494.33 937.36 C-487.84 951.48 -476.91 961.52 -462.72 967.62 C-452.97 971.09 -443.52 971.24 -433.36 969.82 C-432.45 969.76 -431.54 969.7 -430.61 969.64 C-427.59 969.18 -425.86 968.58 -423.36 966.82 C-420.46 962.66 -418.53 958.2 -416.55 953.55 C-414.2 948.13 -411.67 942.79 -409.18 937.44 C-408.62 936.24 -408.07 935.04 -407.5 933.81 C-400.15 917.91 -392.3 902.26 -384.05 886.82 C-380.73 880.57 -377.6 874.26 -374.68 867.82 C-374.32 867.06 -373.97 866.29 -373.61 865.51 C-371.24 860.18 -371.24 860.18 -372.36 856.82 C-401.2 856.82 -434.56 869.73 -461.74 878.5 Z M-326.36 878.82 C-338.54 895.77 -347.17 915.95 -356.01 934.76 C-358.33 939.67 -360.72 944.54 -363.18 949.38 C-381.74 986.27 -397.06 1024.74 -410.36 1063.82 C-410.68 1064.73 -410.99 1065.65 -411.31 1066.59 C-419.97 1092.09 -428.06 1117.63 -434.36 1143.82 C-434.53 1144.51 -434.7 1145.21 -434.88 1145.93 C-466.01 1274.03 -466.01 1274.03 -453.36 1309.82 C-446.93 1314.9 -437.77 1314.13 -430.04 1313.31 C-428.11 1313.07 -426.17 1312.82 -424.24 1312.57 C-423.78 1312.51 -423.78 1312.51 -421.46 1312.2 C-408.17 1310.26 -399.82 1307.02 -391.61 1296.07 C-383.87 1285.32 -382.23 1270.92 -379.54 1258.26 C-379.08 1256.11 -378.61 1253.97 -378.15 1251.82 C-377.17 1247.25 -376.18 1242.67 -375.21 1238.1 C-373.66 1230.85 -372.1 1223.61 -370.54 1216.36 C-370.28 1215.15 -370.01 1213.95 -369.75 1212.7 C-369.22 1210.26 -368.69 1207.82 -368.17 1205.38 C-367.38 1201.71 -366.59 1198.05 -365.8 1194.38 C-361.74 1175.5 -357.6 1156.63 -353.42 1137.77 C-351.91 1130.99 -350.41 1124.2 -348.91 1117.41 C-348.74 1116.63 -348.56 1115.86 -348.39 1115.06 C-343.06 1090.96 -337.8 1066.85 -332.54 1042.73 C-331.75 1039.12 -330.96 1035.52 -330.17 1031.9 C-327.52 1019.77 -324.88 1007.63 -322.25 995.49 C-321.06 990.04 -319.88 984.6 -318.69 979.16 C-318.03 976.14 -317.37 973.12 -316.72 970.1 C-316.3 968.16 -315.88 966.23 -315.45 964.29 C-309.32 935.73 -310.25 905.28 -324.36 878.82 C-325.02 878.82 -325.68 878.82 -326.36 878.82 Z M-525.36 901.82 C-527.7 902.6 -529.92 903.45 -532.19 904.39 C-532.88 904.68 -533.57 904.96 -534.28 905.25 C-536.54 906.18 -538.8 907.12 -541.05 908.07 C-541.81 908.38 -542.58 908.7 -543.37 909.03 C-579.63 924.09 -579.63 924.09 -584.36 928.82 C-588.4 959.63 -579.25 993.51 -560.55 1018.14 C-539.75 1043.62 -513.44 1060.63 -480.5 1065.55 C-474.13 1066.09 -467.75 1065.96 -461.36 1065.82 C-458.29 1058.4 -455.58 1050.87 -452.93 1043.3 C-449.86 1034.52 -446.78 1025.77 -443.39 1017.11 C-442.92 1015.92 -442.45 1014.73 -441.97 1013.51 C-441.08 1011.25 -440.18 1009 -439.27 1006.75 C-438.88 1005.75 -438.48 1004.74 -438.07 1003.71 C-437.71 1002.83 -437.36 1001.96 -436.99 1001.05 C-436.36 998.82 -436.36 998.82 -437.36 995.82 C-438.56 995.79 -439.76 995.76 -440.99 995.74 C-461.45 995.11 -480.9 989.91 -496.36 975.82 C-497.18 975.09 -498 974.36 -498.84 973.61 C-512.32 960.98 -521.06 943.14 -523.36 924.82 C-523.48 921.02 -523.46 917.24 -523.43 913.44 C-523.42 912.42 -523.42 911.4 -523.41 910.34 C-523.4 907.84 -523.38 905.33 -523.36 902.82 C-524.02 902.49 -524.68 902.16 -525.36 901.82 Z M24.32 909.86 C23.65 910.52 22.97 911.18 22.28 911.87 C21.55 912.6 20.82 913.33 20.07 914.09 C19.31 914.84 18.56 915.59 17.78 916.36 C16.17 917.96 14.57 919.56 12.97 921.17 C10.55 923.59 8.12 926 5.68 928.41 C-8.13 942.17 -20.99 955.53 -21.68 976.07 C-21.32 991.78 -15.49 1003.97 -4.36 1014.82 C5.92 1024.29 18.33 1027.17 31.98 1027.03 C44.53 1026.3 56.99 1021.15 65.64 1011.82 C74.97 1000.4 79.31 987.57 78.51 972.75 C75.97 950.85 59.89 936.88 45.1 922.1 C43.17 920.16 41.25 918.22 39.33 916.28 C38.1 915.05 36.87 913.82 35.64 912.59 C35.07 912.01 34.49 911.43 33.9 910.83 C29.72 906.67 28.6 905.62 24.32 909.86 Z M-612.36 940.82 C-614.97 941.92 -614.97 941.92 -618.27 943.65 C-618.57 943.8 -618.57 943.8 -620.07 944.58 C-622 945.59 -623.93 946.61 -625.86 947.63 C-627.18 948.32 -628.5 949.01 -629.82 949.7 C-639.76 954.91 -649.61 960.27 -659.36 965.82 C-659.65 973.14 -658.89 979.85 -657.36 987 C-657.14 988.04 -656.92 989.08 -656.7 990.14 C-652.77 1007.75 -646.22 1024.61 -638.36 1040.82 C-638.05 1041.46 -637.74 1042.11 -637.41 1042.78 C-629.8 1058.25 -619.84 1072 -608.36 1084.82 C-607.86 1085.38 -607.36 1085.94 -606.84 1086.53 C-601.03 1093.02 -595.22 1099.4 -588.36 1104.82 C-588.1 1105.03 -588.1 1105.03 -586.77 1106.09 C-576.25 1114.47 -565.18 1121.42 -553.36 1127.82 C-553.02 1128.01 -553.02 1128.01 -551.27 1128.96 C-532.24 1139.22 -511.48 1145.8 -490.33 1150.11 C-489.88 1150.2 -489.88 1150.2 -487.6 1150.67 C-487.23 1150.69 -487.23 1150.69 -485.36 1150.82 C-482.62 1148.07 -482.24 1145.01 -481.38 1141.34 C-481.28 1140.97 -481.28 1140.97 -480.81 1139.05 C-480.22 1136.62 -479.63 1134.19 -479.05 1131.75 C-478.29 1128.6 -477.52 1125.44 -476.75 1122.28 C-476.56 1121.5 -476.37 1120.72 -476.18 1119.91 C-474.62 1113.62 -472.82 1107.42 -470.81 1101.25 C-468.94 1095.24 -468.94 1095.24 -470.36 1091.82 C-471.01 1091.73 -471.66 1091.64 -472.32 1091.54 C-504.54 1086.98 -533.39 1078.46 -558.36 1056.82 C-559.18 1056.12 -560 1055.42 -560.84 1054.71 C-592.39 1027.16 -606.06 989.07 -609.59 948.17 C-609.78 946.05 -610.07 943.93 -610.36 941.82 C-611.02 941.49 -611.68 941.16 -612.36 940.82 Z M-685.36 980.82 C-687.72 982.01 -687.72 982.01 -690.68 983.87 C-691.23 984.2 -691.23 984.2 -693.97 985.91 C-695.14 986.65 -696.32 987.39 -697.49 988.13 C-698.68 988.87 -699.86 989.61 -701.05 990.35 C-703.41 991.82 -705.76 993.3 -708.12 994.78 C-710.87 996.51 -713.63 998.23 -716.4 999.93 C-717.78 1000.79 -719.17 1001.65 -720.55 1002.5 C-721.15 1002.88 -721.76 1003.25 -722.38 1003.63 C-726.5 1006.2 -730.43 1008.97 -734.36 1011.82 C-733.82 1018 -732.42 1023.23 -730.18 1029 C-729.83 1029.9 -729.48 1030.79 -729.13 1031.71 C-715.26 1066.56 -696.12 1098.62 -671.36 1126.82 C-670.73 1127.55 -670.1 1128.28 -669.45 1129.04 C-667.76 1130.97 -666.07 1132.9 -664.36 1134.82 C-663.66 1135.62 -662.95 1136.42 -662.22 1137.24 C-655.03 1145.31 -647.58 1152.81 -639.36 1159.82 C-638.45 1160.62 -637.54 1161.42 -636.6 1162.24 C-613.4 1182.46 -586.95 1198.47 -559.32 1211.86 C-557.41 1212.79 -555.51 1213.75 -553.61 1214.7 C-544.47 1219.22 -535.07 1222.99 -525.55 1226.63 C-524.34 1227.1 -523.12 1227.57 -521.87 1228.05 C-514.46 1230.84 -507.09 1233.09 -499.36 1234.82 C-497.78 1231.95 -496.99 1229.5 -496.51 1226.27 C-496.37 1225.37 -496.24 1224.48 -496.1 1223.56 C-495.95 1222.6 -495.82 1221.63 -495.67 1220.64 C-495.52 1219.65 -495.37 1218.65 -495.22 1217.62 C-494.74 1214.44 -494.27 1211.25 -493.8 1208.07 C-493.48 1205.94 -493.16 1203.81 -492.84 1201.68 C-491.6 1193.4 -490.37 1185.13 -489.36 1176.82 C-495.09 1174.8 -500.81 1173.16 -506.72 1171.78 C-545.04 1162.76 -579.85 1144.77 -609.36 1118.82 C-609.81 1118.42 -609.81 1118.42 -612.08 1116.44 C-614.54 1114.26 -616.96 1112.05 -619.36 1109.82 C-620.1 1109.13 -620.84 1108.45 -621.59 1107.75 C-653.47 1077.12 -672.88 1032.93 -681.46 990.28 C-681.68 989.19 -681.91 988.1 -682.14 986.98 C-682.33 986 -682.52 985.03 -682.71 984.03 C-682.82 983.66 -682.82 983.66 -683.36 981.82 C-684.02 981.49 -684.68 981.16 -685.36 980.82 Z M-758.36 1027.82 C-760.6 1029.37 -762.83 1030.94 -765.05 1032.5 C-765.36 1032.72 -765.36 1032.72 -766.95 1033.82 C-773.75 1038.63 -780.03 1043.92 -781.94 1052.36 C-785.9 1082.59 -750.82 1122.63 -733.29 1145.49 C-723.65 1157.95 -713.43 1169.8 -702.73 1181.34 C-701.34 1182.85 -699.96 1184.36 -698.58 1185.88 C-690.29 1195.02 -681.77 1203.81 -672.36 1211.82 C-671.31 1212.73 -670.26 1213.65 -669.21 1214.56 C-661.48 1221.28 -653.59 1227.71 -645.36 1233.82 C-644.69 1234.32 -644.01 1234.82 -643.32 1235.34 C-632.6 1243.26 -621.68 1250.77 -610.36 1257.82 C-609.6 1258.29 -608.83 1258.77 -608.04 1259.27 C-594.84 1267.47 -581.29 1274.9 -567.36 1281.82 C-566.95 1282.02 -566.95 1282.02 -564.88 1283.05 C-554.14 1288.34 -543.07 1292.46 -531.74 1296.25 C-531.42 1296.36 -531.42 1296.36 -529.79 1296.91 C-512 1302.85 -512 1302.85 -507.36 1302.82 C-503.39 1299.79 -503.45 1295.97 -502.77 1291.27 C-501.61 1281.45 -501.2 1271.7 -501.36 1261.82 C-508.33 1258.49 -515.45 1256.09 -522.8 1253.75 C-566.64 1239.4 -607.23 1217.42 -643.36 1188.82 C-644.29 1188.08 -645.23 1187.34 -646.19 1186.58 C-652.15 1181.78 -657.84 1176.73 -663.44 1171.52 C-666.15 1169.01 -668.91 1166.57 -671.68 1164.13 C-675.24 1160.92 -678.46 1157.61 -681.54 1153.94 C-683.62 1151.52 -685.8 1149.21 -687.99 1146.88 C-694.63 1139.59 -700.51 1131.74 -706.36 1123.82 C-706.88 1123.12 -707.39 1122.43 -707.92 1121.71 C-727.37 1095.26 -741.91 1066.57 -753.46 1035.9 C-753.81 1034.99 -754.16 1034.08 -754.52 1033.15 C-754.67 1032.74 -754.67 1032.74 -755.45 1030.69 C-756.36 1028.82 -756.36 1028.82 -758.36 1027.82 Z M-866.36 1090.82 C-867.04 1091.52 -867.73 1092.22 -868.43 1092.94 C-875.18 1102.96 -876.61 1115.25 -874.9 1126.98 C-873 1135.84 -869.67 1141.87 -862.11 1147 C-855.53 1150.63 -848.32 1152.28 -841.08 1154.12 C-801.2 1164.31 -801.2 1164.31 -786.36 1176.82 C-786.01 1177.11 -786.01 1177.11 -784.2 1178.61 C-771.16 1190.43 -765.3 1208.74 -764.24 1225.88 C-764.01 1231.17 -763.93 1236.46 -763.86 1241.75 C-763.41 1275.18 -763.41 1275.18 -755.61 1283.75 C-742.49 1296.15 -723.14 1294.16 -706.34 1294.27 C-683.08 1294.46 -659.53 1297.34 -641.61 1313.88 C-630.78 1325.43 -625.28 1341.28 -620.15 1355.95 C-608.51 1389.14 -608.51 1389.14 -593.74 1397 C-574.97 1405.69 -552.01 1409.47 -531.36 1408.82 C-529.78 1407.24 -530.22 1405.63 -530.2 1403.44 C-530.2 1402.97 -530.2 1402.97 -530.17 1400.62 C-530.17 1400.11 -530.17 1400.11 -530.16 1397.54 C-530.15 1396.49 -530.15 1395.45 -530.14 1394.38 C-530.13 1392.16 -530.13 1389.94 -530.12 1387.73 C-530.11 1384.36 -530.08 1380.99 -530.05 1377.62 C-530.04 1375.47 -530.04 1373.31 -530.03 1371.16 C-530.03 1370.66 -530.03 1370.66 -530 1368.13 C-530.02 1360.65 -530.68 1353.77 -535.86 1348.07 C-543.08 1342.87 -552.24 1340.02 -560.42 1336.72 C-601.91 1319.95 -641.35 1296.78 -676.36 1268.82 C-677.03 1268.29 -677.7 1267.76 -678.38 1267.21 C-685.76 1261.35 -693.03 1255.4 -699.96 1249.01 C-702 1247.15 -704.06 1245.34 -706.14 1243.53 C-710.32 1239.88 -714.38 1236.12 -718.43 1232.32 C-718.76 1232 -718.76 1232 -720.45 1230.42 C-726.7 1224.55 -732.76 1218.61 -738.36 1212.11 C-740.31 1209.88 -742.3 1207.71 -744.32 1205.54 C-749.92 1199.49 -755.24 1193.28 -760.36 1186.82 C-760.87 1186.18 -761.37 1185.55 -761.89 1184.9 C-785.62 1155.11 -805.16 1123.15 -822.46 1089.25 C-828.28 1077.9 -828.28 1077.9 -832.36 1073.82 C-845.26 1072.58 -857.95 1082.04 -866.36 1090.82 Z M-442.89 1359.97 C-445.58 1360.38 -448.28 1360.75 -450.98 1361.11 C-459.89 1362.38 -467.52 1363.47 -474.36 1369.82 C-475.21 1370.54 -476.05 1371.27 -476.92 1372.01 C-477.23 1372.33 -477.23 1372.33 -478.8 1373.94 C-479.44 1374.58 -480.08 1375.22 -480.73 1375.89 C-484.19 1379.98 -484.75 1383.21 -484.61 1388.44 C-483.92 1395.02 -481.51 1399.57 -476.36 1403.82 C-473.19 1404.88 -470.7 1405.09 -467.36 1405.19 C-466.31 1405.24 -465.26 1405.29 -464.18 1405.34 C-458.68 1404.59 -454.29 1402.29 -449.36 1399.82 C-448.8 1399.54 -448.8 1399.54 -445.94 1398.11 C-442.87 1396.57 -439.8 1395 -436.75 1393.41 C-434.87 1392.44 -432.99 1391.48 -431.1 1390.52 C-407.69 1378.48 -407.69 1378.48 -405.63 1372.8 C-405.56 1372.43 -405.56 1372.43 -405.18 1370.57 C-405.1 1370.2 -405.1 1370.2 -404.69 1368.36 C-404.28 1365.17 -404.34 1362.04 -404.36 1358.82 C-417.52 1357.7 -429.84 1357.96 -442.89 1359.97 Z " fill="url(#logo-gold)" transform="translate(923.36,166.18)"/>
    <path d="M0 0 C6.01 3.33 9.48 8.58 11.81 14.94 C15.6 30.84 11.43 45.08 6.81 60.25 C6.17 62.41 5.54 64.56 4.9 66.72 C2.95 73.33 0.95 79.92 -1.06 86.5 C-1.37 87.51 -1.68 88.53 -2 89.57 C-7.29 106.92 -12.73 124.22 -18.26 141.49 C-31.66 183.38 -44.08 225.67 -49.06 269.5 C-49.16 270.34 -49.26 271.18 -49.37 272.04 C-50.35 281.23 -50.34 290.46 -50.38 299.69 C-50.38 300.58 -50.38 301.48 -50.39 302.4 C-50.42 317.52 -49.18 332.12 -46.94 347.06 C-45.34 357.98 -45.86 366.91 -51.94 376.44 C-56.39 380.76 -60.87 383.58 -67.12 383.88 C-73.82 383.75 -79.39 381.18 -84.11 376.44 C-85.92 374.21 -87.52 371.93 -89.06 369.5 C-89.26 369.21 -89.26 369.21 -90.27 367.74 C-117.53 322.14 -93.58 233.36 -81.62 185.69 C-75.55 161.77 -68.26 138.25 -60.71 114.77 C-57.22 103.87 -53.75 92.97 -50.31 82.06 C-49.99 81.05 -49.67 80.04 -49.34 78.99 C-46.15 68.86 -43.03 58.73 -40.4 48.43 C-40.3 48.04 -40.3 48.04 -39.79 46.08 C-38.89 42.55 -38.02 39.01 -37.2 35.47 C-33.99 22.34 -28.18 7.86 -16.25 0.36 C-10.74 -2.35 -5.57 -2.38 0 0 Z " fill="url(#logo-gold)" transform="translate(257.06,468.5)"/>
    <path d="M0 0 C5.64 3.89 9.15 8.23 10.81 14.94 C11.95 27.08 11.37 38.58 6.81 49.94 C5.6 53.1 4.42 56.27 3.25 59.44 C2.91 60.34 2.58 61.25 2.23 62.19 C-19.59 122.3 -32.66 187.51 -32.18 251.55 C-32.17 252.62 -32.16 253.69 -32.16 254.8 C-32.12 259.23 -32.08 263.65 -32.02 268.07 C-31.97 271.35 -31.95 274.64 -31.93 277.92 C-31.91 278.91 -31.89 279.9 -31.87 280.92 C-31.84 289.39 -33.61 296.03 -39.44 302.4 C-44.27 306.65 -50.02 308.56 -56.31 309.31 C-62.53 308.71 -67.79 306.52 -72.09 301.88 C-79.72 291.1 -79.33 277.87 -79.39 265.12 C-79.4 264.12 -79.41 263.12 -79.41 262.08 C-79.43 258.85 -79.44 255.61 -79.44 252.38 C-79.44 251.26 -79.44 250.15 -79.44 249 C-79.42 229.81 -78.53 210.98 -76.19 191.94 C-76.1 191.23 -76.02 190.53 -75.93 189.8 C-70.22 142.28 -60.41 95.34 -45.19 49.94 C-44.81 48.81 -44.44 47.69 -44.05 46.53 C-30.98 7.71 -30.98 7.71 -15.69 -0.06 C-10.14 -1.65 -5.49 -1.83 0 0 Z " fill="url(#logo-gold)" transform="translate(101.19,528.06)"/>
    <path d="M0 0 C5.94 5.81 7.94 11.74 8.11 19.93 C8.05 27.8 6.49 35.02 4.62 42.65 C3.66 46.6 2.75 50.56 1.85 54.52 C1.76 54.91 1.76 54.91 1.31 56.91 C-1.21 68.09 -2.81 79.38 -4.19 90.75 C-4.3 91.66 -4.42 92.56 -4.54 93.5 C-9.18 130.76 -6.18 169.36 2.81 205.75 C3.05 206.73 3.28 207.71 3.52 208.72 C7.9 226.73 13.85 244.17 20.05 261.62 C22.91 269.74 24.96 278.93 21.87 287.31 C18.58 292.78 14.09 297.08 7.81 298.75 C-0.67 300.06 -7.15 297.43 -14.19 292.75 C-25.02 283.73 -29.95 268.75 -34.19 255.75 C-34.4 255.11 -34.61 254.48 -34.82 253.82 C-42.73 229.69 -47.57 204.85 -51.19 179.75 C-51.27 179.19 -51.27 179.19 -51.69 176.37 C-58.72 127.33 -52.95 77.17 -42.06 29.12 C-41.83 28.11 -41.6 27.09 -41.37 26.04 C-38.59 14.38 -34.85 3.13 -24.11 -3.54 C-15.4 -7.2 -7.59 -5.36 0 0 Z " fill="url(#logo-gold)" transform="translate(142.19,644.25)"/>
    <path d="M0 0 C14.25 10.27 17.2 25.58 21.53 41.69 C34.37 89.09 50.41 134.32 70.01 179.34 C70.24 179.86 70.24 179.86 71.39 182.53 C71.59 182.98 71.59 182.98 72.6 185.27 C76.05 193.71 77.34 202.48 75.03 211.48 C72.22 217.73 67.06 222.1 60.88 224.88 C55.33 226.66 49.83 226.28 44.48 223.99 C33.92 217.91 29.61 207.55 24.69 196.94 C24.25 196 23.82 195.07 23.37 194.11 C9.2 163.56 -2.06 131.98 -12.31 99.94 C-12.59 99.09 -12.86 98.23 -13.14 97.36 C-19 79.06 -24.81 60.73 -29.62 42.12 C-29.91 41.06 -30.19 39.99 -30.49 38.9 C-32.87 29.26 -34.28 18.9 -29.5 9.8 C-22.86 -0.6 -11.56 -3.71 0 0 Z " fill="url(#logo-gold)" transform="translate(65.31,872.06)"/>
    <path d="M0 0 C8.55 5.59 15.78 13.24 19.94 22.69 C20.01 26.41 19.69 26.97 17.44 29.75 C5.89 41.43 -7.74 51.25 -20.97 60.91 C-21.58 61.36 -22.19 61.81 -22.82 62.27 C-24.45 63.48 -26.1 64.68 -27.75 65.88 C-28.5 66.58 -29.24 67.28 -30 68 C-30 69.32 -30 70.64 -30 72 C-28.14 73.67 -28.14 73.67 -25.69 75.19 C-24.89 75.7 -24.09 76.21 -23.26 76.73 C-17.2 80.13 -10.04 79.84 -3.38 78.46 C9.97 73.9 16.86 62.81 23 51 C24 50 24 50 27.75 49.69 C31.09 49.72 31.98 49.98 34.94 51.88 C38.45 55.49 38.34 58.28 38.27 63.15 C37.4 72.31 33.02 79.3 27 86 C26.39 86.69 25.78 87.38 25.16 88.09 C20.09 93.5 14.4 97.32 8 101 C7.22 101.46 6.44 101.93 5.64 102.41 C0.58 105.19 -4.56 106.88 -10.12 108.31 C-10.78 108.48 -11.44 108.66 -12.12 108.83 C-25.16 111.96 -37.91 109.04 -49.27 102.17 C-62.57 93.16 -72.63 77.61 -76 62 C-76.89 51.35 -77.09 40.62 -72 31 C-71.58 30.17 -71.15 29.33 -70.72 28.47 C-62.17 13.02 -48.26 2.58 -31.69 -3.15 C-21.48 -5.51 -9.1 -5.63 0 0 Z M-45.87 30.32 C-48.98 34.95 -48.56 40.66 -48 46 C-46.94 48.96 -45.64 51.29 -44 54 C-40.23 54 -39.3 52.97 -36.36 50.68 C-35.91 50.33 -35.91 50.33 -33.61 48.56 C-32.67 47.82 -31.72 47.08 -30.75 46.31 C-28.89 44.87 -27.03 43.43 -25.17 41.99 C-24.29 41.3 -23.41 40.62 -22.5 39.91 C-19.38 37.53 -16.21 35.25 -13 33 C-14.38 27.81 -17.74 25 -22 22 C-32 18.67 -39.54 22.57 -45.87 30.32 Z " fill="url(#logo-gold)" transform="translate(1440,1453)"/>
    <path d="M0 0 C5.12 3.55 7.47 7.04 9.99 12.66 C10.33 13.4 10.68 14.14 11.03 14.9 C12.14 17.28 13.23 19.67 14.31 22.06 C15.07 23.71 15.83 25.35 16.59 27 C18.75 31.65 20.88 36.33 23 41 C23.26 41.56 23.26 41.56 24.55 44.4 C26.43 48.54 28.29 52.67 30.13 56.82 C32.58 62.34 35.18 67.78 37.78 73.23 C39 76 39 76 39 78 C47.5 70.74 53.26 54.84 54.27 44.13 C54.33 40.36 54.16 36.83 53.45 33.12 C52.93 30.23 52.61 27.91 53 25 C56.93 19.7 63.23 16.88 69.51 15.31 C73.66 14.79 77.17 15.31 81 17 C84.28 19.73 86.7 21.88 87.31 26.19 C88 41.37 80.62 55.71 74 69 C74.97 69.48 75.94 69.97 76.94 70.47 C77.58 70.79 78.22 71.11 78.88 71.44 C80.31 72.15 81.74 72.87 83.17 73.58 C86.91 75.45 90.65 77.33 94.38 79.24 C94.73 79.42 94.73 79.42 96.51 80.33 C97.84 81.01 99.17 81.69 100.51 82.39 C108.08 86.23 113.97 87.21 122.33 86.58 C125 87 125 87 126.83 89.21 C128.91 94.17 128.89 99.11 127.31 104.25 C124.61 110.22 120.54 113.5 114.94 116.81 C108.17 119.32 100.86 119.35 94.2 116.56 C90.01 114.59 86 112.32 82 110 C81.28 109.59 80.56 109.18 79.82 108.75 C73.63 105.19 67.5 101.53 61.4 97.81 C60.34 97.17 59.28 96.53 58.19 95.88 C57.27 95.32 56.36 94.76 55.42 94.18 C53 93 53 93 49 93 C49.64 97.18 51.04 100.58 52.84 104.4 C53.12 105 53.4 105.6 53.68 106.22 C54.58 108.13 55.48 110.03 56.38 111.94 C56.97 113.21 57.57 114.49 58.16 115.76 C62.53 125.1 62.53 125.1 64.69 129.28 C66 132 66 132 66.06 134.12 C62.39 140.65 50.2 145.27 43.38 147.5 C39.92 148.23 38.01 147.83 35 146 C31.3 141.98 29.21 137.6 26.99 132.68 C26.62 131.88 26.25 131.07 25.87 130.25 C24.68 127.65 23.49 125.04 22.31 122.44 C21.49 120.64 20.66 118.83 19.84 117.03 C15.66 107.9 11.51 98.75 7.41 89.59 C-0.96 70.89 -9.44 52.24 -18.25 33.75 C-18.68 32.85 -19.11 31.95 -19.55 31.01 C-21.35 27.27 -23.19 23.62 -25.31 20.05 C-27 17 -27 17 -26.75 14.5 C-21 6.29 -10.39 -1.22 0 0 Z " fill="url(#logo-gold)" transform="translate(1253,1488)"/>
    <path d="M0 0 C10.55 0.17 20.89 2.72 29.88 8.25 C30.33 8.53 30.33 8.53 32.62 9.94 C39.22 16.72 42.51 25.74 45.62 34.5 C46.07 35.73 46.51 36.95 46.97 38.22 C52.03 52.37 56.78 66.63 61.56 80.88 C61.77 81.49 61.77 81.49 62.81 84.58 C63.99 88.08 65.16 91.59 66.32 95.1 C66.5 95.63 66.5 95.63 67.41 98.33 C67.74 99.31 68.06 100.3 68.4 101.31 C68.68 102.17 68.97 103.03 69.27 103.92 C69.88 106.25 69.88 106.25 69.88 110.25 C70.53 110.25 71.19 110.25 71.88 110.25 C72.08 109.31 72.29 108.38 72.5 107.41 C75.74 93.11 79.8 79.06 83.81 64.96 C84.73 61.73 85.65 58.49 86.56 55.25 C86.85 54.22 87.15 53.18 87.45 52.12 C89.39 45.16 91.17 38.17 92.72 31.11 C93.78 26.34 93.78 26.34 94.88 25.25 C103.7 24.12 113.38 26.2 120.5 31.69 C123.41 34.83 124.83 36.75 124.91 41.11 C124.37 49.13 121.73 56.46 119.16 64.01 C113.18 81.59 107.76 99.32 102.5 117.12 C102.33 117.68 102.33 117.68 101.5 120.49 C97.49 133.99 93.65 147.52 90.15 161.16 C89.88 162.19 89.61 163.22 89.33 164.29 C89.22 164.74 89.22 164.74 88.62 167.05 C87.88 169.25 87.88 169.25 85.88 171.25 C75.95 170.93 64.81 168.66 57.65 161.37 C52.18 154.84 49.53 146.07 46.75 138.14 C46.37 137.07 45.99 136 45.6 134.9 C40.81 121.36 36.23 107.75 31.64 94.14 C30.45 90.63 29.26 87.11 28.08 83.6 C21.5 64.14 21.5 64.14 18.88 56.25 C17.28 59.22 16.24 62.11 15.33 65.36 C15.05 66.38 14.76 67.4 14.46 68.45 C14.16 69.55 13.85 70.65 13.54 71.78 C13.38 72.36 13.38 72.36 12.57 75.26 C11.89 77.7 11.21 80.14 10.54 82.58 C9.52 86.25 8.49 89.91 7.46 93.58 C3.79 106.73 0.44 119.84 -2.12 133.25 C-4.04 143.16 -4.04 143.16 -5.12 144.25 C-14.44 144.34 -24.66 142.34 -32.38 137 C-35.04 132.81 -35.5 128.67 -34.75 123.83 C-34.11 121.11 -33.38 118.43 -32.61 115.74 C-32.34 114.74 -32.06 113.74 -31.78 112.71 C-30.91 109.55 -30.02 106.4 -29.12 103.25 C-28.57 101.27 -28.01 99.3 -27.46 97.32 C-26.06 92.36 -24.63 87.41 -23.2 82.45 C-18.64 66.66 -14.13 50.86 -9.81 35 C-9.63 34.32 -9.44 33.63 -9.25 32.93 C-6.8 23.97 -4.99 15.7 -4.52 6.43 C-4.17 0.33 -4.17 0.33 0 0 Z " fill="url(#logo-gold)" transform="translate(658.12,1516.75)"/>
    <path d="M0 0 C11.96 9.33 15.6 25.87 19.71 39.76 C27.31 65.35 27.31 65.35 32.7 68.8 C34.77 69.82 34.77 69.82 36.81 70.59 C38.58 71.44 38.58 71.44 40.58 74.44 C40.58 79.33 38.8 82.31 35.56 85.77 C28.52 91.74 20.83 93.25 11.77 92.95 C7.16 92.22 5 90.55 1.58 87.44 C0.92 87.44 0.26 87.44 -0.42 87.44 C-1.68 89.2 -1.68 89.2 -3.1 91.57 C-9.36 101.16 -18.82 106.78 -30.07 109.16 C-40.8 110.46 -50.74 110.46 -59.63 103.78 C-66.87 97.23 -70.99 88.61 -71.48 78.85 C-71.22 68.99 -66.89 62.1 -60.42 54.88 C-49.24 44.29 -32.79 38.98 -18.42 34.45 C-19.09 28.86 -21.4 24.29 -25.54 20.51 C-32.12 18.08 -38.95 19.01 -45.39 21.49 C-52.28 24.74 -54.75 29.36 -58.02 36.02 C-59.42 38.45 -59.42 38.45 -62.42 40.45 C-67.04 41.22 -71.2 40.91 -75.36 38.7 C-78.78 36.18 -80 34.53 -80.82 30.4 C-81.16 22.65 -77.77 18.16 -72.73 12.57 C-55.94 -3.64 -20.56 -13.22 0 0 Z M-20.69 53.44 C-27.73 56.04 -34.78 59.56 -38.42 66.44 C-39.48 71.16 -38.88 74.49 -36.79 78.82 C-33.66 82.28 -31.12 84.23 -26.35 84.61 C-18.6 84.26 -13.36 80.11 -7.79 75.07 C-5.3 70.32 -6.92 66.17 -8.32 61.3 C-10.21 55.3 -10.21 55.3 -11.42 52.45 C-14.67 50.82 -17.35 52.37 -20.69 53.44 Z " fill="url(#logo-gold)" transform="translate(1219.42,1565.55)"/>
    <path d="M0 0 C4.06 4.62 5.49 7.52 5.41 13.61 C4.68 17.85 2.27 20.36 -1 23 C-4.82 25.36 -8.5 26.49 -13 26 C-14.96 24.57 -14.96 24.57 -16.81 22.69 C-21.69 18.17 -26.32 15.95 -33 15.62 C-39.23 15.93 -44.12 17.65 -48.38 22.31 C-54.73 29.93 -53.81 40.68 -53 50 C-51.39 58.8 -48.15 67.86 -40.98 73.62 C-33.99 78.2 -27.34 79.09 -19.17 77.42 C-11.79 75.29 -6.58 71.73 -0.89 66.73 C2 65 2 65 5.68 65.12 C10.13 66.3 12.66 68.18 15.38 71.88 C16.31 75.06 15.98 76.8 15 80 C7.9 92.07 -3.37 98.58 -16.48 102.42 C-33.98 106.44 -51.6 104.36 -67 95 C-78.99 86.81 -85.68 72.29 -88.61 58.41 C-91.07 43.38 -88.97 29.17 -80.67 16.3 C-70.16 1.82 -53.84 -4.42 -36.82 -7.59 C-24.17 -9.1 -10.58 -7.46 0 0 Z " fill="url(#logo-gold)" transform="translate(1114,1593)"/>
    <path d="M0 0 C0.91 0.27 1.83 0.53 2.77 0.81 C11.41 3.8 19.59 9.64 24.04 17.76 C30.27 32.27 28.21 47.71 26 62.88 C22.67 86.03 22.67 86.03 26 93 C26.89 93.8 27.77 94.61 28.69 95.44 C31 98 31 98 31.25 101.56 C29.95 105.13 29.68 105.58 26.62 107.38 C18.37 111.08 9.07 111.45 0.44 108.5 C-4.43 106.27 -6.98 102.91 -9 98 C-9 97.34 -9 96.68 -9 96 C-9.72 96.48 -10.45 96.96 -11.2 97.46 C-12.16 98.09 -13.13 98.72 -14.12 99.38 C-15.08 100 -16.03 100.63 -17.01 101.27 C-27.3 107.21 -39.42 106.86 -50.67 104.07 C-59.03 101.38 -66.16 97.5 -71 90 C-71.41 89.38 -71.82 88.76 -72.25 88.12 C-76.42 80.53 -76.37 70.49 -74.31 62.22 C-73.38 59.96 -72.34 58.03 -71 56 C-70.63 55.39 -70.27 54.78 -69.89 54.15 C-64.12 46.05 -53.15 42.06 -43.69 40.35 C-38.98 39.74 -34.31 39.71 -29.56 39.75 C-29.08 39.75 -29.08 39.75 -26.65 39.73 C-19.91 39.74 -13.59 40.59 -7 42 C-6.38 30.38 -6.38 30.38 -8.62 25.38 C-13.73 20.27 -19.34 19.02 -26.31 18.75 C-33.1 18.86 -37.84 20.94 -43.06 25.19 C-45.89 27.4 -46.95 27.99 -50.62 28.62 C-55.62 27.7 -58.59 25.65 -61.88 21.81 C-63.51 17.72 -63.98 14.33 -63 10 C-59.64 3.89 -54.85 0.98 -48.43 -1.31 C-33.55 -5.54 -14.73 -4.36 0 0 Z M-39.94 63.75 C-42.17 68.48 -42.55 72.4 -40.88 77.25 C-38.18 81.2 -35.54 83.49 -31 85 C-23.77 85.71 -18.07 85.17 -12 81 C-9.24 78.24 -9.38 76.03 -8.88 72.19 C-8.71 70.96 -8.54 69.74 -8.37 68.48 C-8.06 65.61 -7.92 62.88 -8 60 C-12.38 57.84 -16.52 57.62 -21.31 57.62 C-22.07 57.63 -22.83 57.63 -23.61 57.63 C-30.4 57.78 -34.76 59.07 -39.94 63.75 Z " fill="url(#logo-gold)" transform="translate(858,1595)"/>
    <path d="M0 0 C3.14 3.49 4.51 7.06 4.39 11.8 C2.59 21.93 -5.04 30.38 -11.41 38.08 C-13.08 40.1 -14.74 42.14 -16.4 44.18 C-22.43 51.56 -28.56 58.86 -34.79 66.09 C-47.32 80.65 -47.32 80.65 -49 84 C-44.77 83.93 -40.54 83.84 -36.3 83.74 C-34.87 83.7 -33.43 83.68 -32 83.65 C-9.28 83.28 -9.28 83.28 -1 75 C0.67 74.96 2.33 74.96 4 75 C8.23 82.1 9.94 87.61 9 96 C6.65 100.98 4.11 103.06 -1 105 C-5.32 105.88 -9.45 106.14 -13.86 106.19 C-14.19 106.19 -14.19 106.19 -15.85 106.22 C-17.27 106.23 -18.69 106.25 -20.11 106.26 C-22.36 106.28 -24.62 106.31 -26.87 106.34 C-31.66 106.4 -36.46 106.45 -41.25 106.5 C-46.8 106.56 -52.34 106.62 -57.88 106.69 C-60.09 106.72 -62.3 106.74 -64.5 106.76 C-71.1 106.84 -77.58 107 -84.12 107.96 C-86 108 -86 108 -88.56 106.25 C-90.79 102.77 -91.2 99.87 -91.31 95.81 C-91.35 94.91 -91.39 94.01 -91.43 93.08 C-90.37 85.43 -85.5 79.77 -80.62 74.06 C-79.37 72.57 -78.12 71.08 -76.86 69.58 C-76.22 68.83 -75.58 68.07 -74.92 67.29 C-72.45 64.34 -70.01 61.37 -67.57 58.4 C-59.08 48.03 -50.57 37.65 -41.46 27.8 C-40 26 -40 26 -39 23 C-43.11 23.21 -47.22 23.45 -51.32 23.69 C-52.72 23.77 -54.11 23.85 -55.5 23.92 C-73.27 24.84 -73.27 24.84 -81 30 C-83.92 30.36 -85.37 30.48 -87.75 28.69 C-91.24 23.98 -90.6 17.55 -90 12 C-88.89 8.73 -87.62 6.26 -85 4 C-79.11 1.37 -74.46 0.59 -68.06 0.74 C-67.22 0.75 -66.38 0.76 -65.52 0.76 C-63.74 0.78 -61.96 0.8 -60.19 0.83 C-55.57 0.91 -50.95 0.93 -46.34 0.96 C-45.44 0.96 -44.53 0.97 -43.61 0.98 C-36.56 1.02 -29.54 0.9 -22.5 0.56 C-21.64 0.52 -20.78 0.48 -19.89 0.44 C-15.23 0.2 -10.64 -0.25 -6.03 -0.9 C-3.78 -1.01 -2.12 -0.74 0 0 Z " fill="url(#logo-gold)" transform="translate(1000,1599)"/>
  </g>
</svg>
